<svg xmlns="http://www.w3.org/2000/svg" xmlns:xlink="http://www.w3.org/1999/xlink" width="300" zoomAndPan="magnify" viewBox="0 0 224.87999 225" height="300" preserveAspectRatio="xMidYMid meet" version="1.0"><defs><g/></defs><g fill="#000000" fill-opacity="1"><g transform="translate(47.95085, 88.234181)"><g><path d="M -6.15625 -11.453125 C -6.78125 -11.585938 -7.351562 -11.460938 -7.875 -11.078125 C -8.394531 -10.691406 -8.785156 -10.132812 -9.046875 -9.40625 C -9.347656 -8.59375 -9.394531 -7.867188 -9.1875 -7.234375 C -8.976562 -6.609375 -8.585938 -6.191406 -8.015625 -5.984375 C -7.578125 -5.816406 -7.175781 -5.820312 -6.8125 -6 C -6.445312 -6.175781 -6.125 -6.414062 -5.84375 -6.71875 C -5.5625 -7.03125 -5.320312 -7.320312 -5.125 -7.59375 L -4.359375 -8.703125 C -4.148438 -8.992188 -3.898438 -9.304688 -3.609375 -9.640625 C -3.328125 -9.972656 -2.992188 -10.269531 -2.609375 -10.53125 C -2.234375 -10.800781 -1.804688 -10.984375 -1.328125 -11.078125 C -0.859375 -11.171875 -0.335938 -11.113281 0.234375 -10.90625 C 0.890625 -10.664062 1.421875 -10.273438 1.828125 -9.734375 C 2.234375 -9.203125 2.472656 -8.550781 2.546875 -7.78125 C 2.617188 -7.007812 2.488281 -6.160156 2.15625 -5.234375 C 1.675781 -3.929688 0.988281 -3.007812 0.09375 -2.46875 C -0.800781 -1.925781 -1.757812 -1.800781 -2.78125 -2.09375 L -2.21875 -3.609375 C -1.75 -3.484375 -1.316406 -3.5 -0.921875 -3.65625 C -0.523438 -3.820312 -0.179688 -4.085938 0.109375 -4.453125 C 0.410156 -4.816406 0.648438 -5.238281 0.828125 -5.71875 C 1.023438 -6.28125 1.113281 -6.816406 1.09375 -7.328125 C 1.070312 -7.847656 0.941406 -8.296875 0.703125 -8.671875 C 0.472656 -9.054688 0.140625 -9.328125 -0.296875 -9.484375 C -0.710938 -9.640625 -1.085938 -9.648438 -1.421875 -9.515625 C -1.753906 -9.378906 -2.066406 -9.15625 -2.359375 -8.84375 C -2.648438 -8.53125 -2.929688 -8.1875 -3.203125 -7.8125 L -4.171875 -6.46875 C -4.804688 -5.613281 -5.472656 -5 -6.171875 -4.625 C -6.867188 -4.257812 -7.628906 -4.226562 -8.453125 -4.53125 C -9.128906 -4.78125 -9.65625 -5.179688 -10.03125 -5.734375 C -10.40625 -6.285156 -10.617188 -6.925781 -10.671875 -7.65625 C -10.722656 -8.382812 -10.609375 -9.140625 -10.328125 -9.921875 C -10.046875 -10.703125 -9.65625 -11.347656 -9.15625 -11.859375 C -8.65625 -12.367188 -8.097656 -12.710938 -7.484375 -12.890625 C -6.867188 -13.078125 -6.253906 -13.070312 -5.640625 -12.875 Z M -6.15625 -11.453125 "/></g></g></g><g fill="#000000" fill-opacity="1"><g transform="translate(51.536208, 78.359698)"><g><path d="M 2.6875 -4.5625 C 2.257812 -3.769531 1.695312 -3.1875 1 -2.8125 C 0.3125 -2.4375 -0.441406 -2.269531 -1.265625 -2.3125 C -2.085938 -2.363281 -2.925781 -2.617188 -3.78125 -3.078125 C -4.65625 -3.546875 -5.335938 -4.117188 -5.828125 -4.796875 C -6.316406 -5.484375 -6.59375 -6.210938 -6.65625 -6.984375 C -6.71875 -7.765625 -6.539062 -8.539062 -6.125 -9.3125 C -5.800781 -9.90625 -5.394531 -10.382812 -4.90625 -10.75 C -4.425781 -11.113281 -3.90625 -11.34375 -3.34375 -11.4375 C -2.78125 -11.53125 -2.210938 -11.472656 -1.640625 -11.265625 L -2.359375 -9.9375 C -2.796875 -10.050781 -3.257812 -10.015625 -3.75 -9.828125 C -4.238281 -9.648438 -4.640625 -9.269531 -4.953125 -8.6875 C -5.359375 -7.925781 -5.394531 -7.15625 -5.0625 -6.375 C -4.738281 -5.59375 -4.09375 -4.941406 -3.125 -4.421875 C -2.132812 -3.878906 -1.21875 -3.679688 -0.375 -3.828125 C 0.46875 -3.972656 1.097656 -4.429688 1.515625 -5.203125 C 1.796875 -5.710938 1.90625 -6.222656 1.84375 -6.734375 C 1.78125 -7.242188 1.546875 -7.679688 1.140625 -8.046875 L 1.859375 -9.375 C 2.316406 -9.019531 2.671875 -8.585938 2.921875 -8.078125 C 3.171875 -7.566406 3.28125 -7.007812 3.25 -6.40625 C 3.21875 -5.8125 3.03125 -5.195312 2.6875 -4.5625 Z M 2.6875 -4.5625 "/></g></g></g><g fill="#000000" fill-opacity="1"><g transform="translate(55.98779, 70.241875)"><g><path d="M 0.78125 -1.109375 L -7.15625 -6.671875 L -6.328125 -7.859375 L -5.140625 -7.03125 L -5.078125 -7.109375 C -5.367188 -7.515625 -5.503906 -7.992188 -5.484375 -8.546875 C -5.460938 -9.097656 -5.28125 -9.617188 -4.9375 -10.109375 C -4.789062 -10.316406 -4.628906 -10.484375 -4.453125 -10.609375 C -4.285156 -10.742188 -4.117188 -10.847656 -3.953125 -10.921875 L -3.21875 -9.78125 C -3.320312 -9.707031 -3.425781 -9.625 -3.53125 -9.53125 C -3.632812 -9.4375 -3.738281 -9.316406 -3.84375 -9.171875 C -4.25 -8.597656 -4.40625 -7.992188 -4.3125 -7.359375 C -4.226562 -6.734375 -3.921875 -6.238281 -3.390625 -5.875 L 1.640625 -2.34375 Z M 0.78125 -1.109375 "/></g></g></g><g fill="#000000" fill-opacity="1"><g transform="translate(59.383463, 65.124493)"><g><path d="M 3.6875 -3.796875 C 3.101562 -3.148438 2.4375 -2.722656 1.6875 -2.515625 C 0.9375 -2.304688 0.160156 -2.3125 -0.640625 -2.53125 C -1.441406 -2.757812 -2.210938 -3.207031 -2.953125 -3.875 C -3.710938 -4.550781 -4.25 -5.28125 -4.5625 -6.0625 C -4.882812 -6.84375 -4.976562 -7.613281 -4.84375 -8.375 C -4.71875 -9.144531 -4.363281 -9.851562 -3.78125 -10.5 C -3.1875 -11.15625 -2.515625 -11.585938 -1.765625 -11.796875 C -1.023438 -12.015625 -0.25 -12.007812 0.5625 -11.78125 C 1.375 -11.550781 2.160156 -11.097656 2.921875 -10.421875 C 3.660156 -9.753906 4.179688 -9.03125 4.484375 -8.25 C 4.796875 -7.476562 4.890625 -6.707031 4.765625 -5.9375 C 4.640625 -5.164062 4.28125 -4.453125 3.6875 -3.796875 Z M 2.6875 -4.703125 C 3.132812 -5.203125 3.375 -5.722656 3.40625 -6.265625 C 3.445312 -6.816406 3.328125 -7.351562 3.046875 -7.875 C 2.773438 -8.40625 2.398438 -8.882812 1.921875 -9.3125 C 1.429688 -9.75 0.910156 -10.078125 0.359375 -10.296875 C -0.191406 -10.523438 -0.738281 -10.59375 -1.28125 -10.5 C -1.832031 -10.40625 -2.332031 -10.109375 -2.78125 -9.609375 C -3.21875 -9.117188 -3.453125 -8.597656 -3.484375 -8.046875 C -3.515625 -7.503906 -3.390625 -6.96875 -3.109375 -6.4375 C -2.828125 -5.914062 -2.441406 -5.4375 -1.953125 -5 C -1.472656 -4.570312 -0.957031 -4.242188 -0.40625 -4.015625 C 0.132812 -3.796875 0.675781 -3.734375 1.21875 -3.828125 C 1.757812 -3.921875 2.25 -4.210938 2.6875 -4.703125 Z M 2.6875 -4.703125 "/></g></g></g><g fill="#000000" fill-opacity="1"><g transform="translate(66.171206, 57.765875)"><g><path d="M -6.5625 -11.5 L 2.125 -1.921875 L 1 -0.90625 L -7.6875 -10.484375 Z M -6.5625 -11.5 "/></g></g></g><g fill="#000000" fill-opacity="1"><g transform="translate(69.037888, 55.150567)"><g><path d="M -5.90625 -11.859375 L 2.21875 -1.796875 L 1.0625 -0.859375 L -7.0625 -10.921875 Z M -5.90625 -11.859375 "/></g></g></g><g fill="#000000" fill-opacity="1"><g transform="translate(72.018012, 52.711519)"><g/></g></g><g fill="#000000" fill-opacity="1"><g transform="translate(75.47527, 50.023346)"><g><path d="M 4.5 -2.265625 C 3.789062 -1.867188 3.0625 -1.695312 2.3125 -1.75 C 1.570312 -1.8125 0.867188 -2.085938 0.203125 -2.578125 C -0.460938 -3.066406 -1.039062 -3.757812 -1.53125 -4.65625 C -2.03125 -5.550781 -2.304688 -6.40625 -2.359375 -7.21875 C -2.421875 -8.039062 -2.273438 -8.785156 -1.921875 -9.453125 C -1.578125 -10.117188 -1.046875 -10.648438 -0.328125 -11.046875 C 0.222656 -11.359375 0.707031 -11.507812 1.125 -11.5 C 1.550781 -11.5 1.914062 -11.425781 2.21875 -11.28125 C 2.519531 -11.144531 2.757812 -11.03125 2.9375 -10.9375 L 3.046875 -11 L 0.734375 -15.1875 L 2.03125 -15.90625 L 8.28125 -4.578125 L 7.03125 -3.890625 L 6.3125 -5.1875 L 6.15625 -5.09375 C 6.144531 -4.882812 6.113281 -4.613281 6.0625 -4.28125 C 6.019531 -3.957031 5.882812 -3.613281 5.65625 -3.25 C 5.425781 -2.882812 5.039062 -2.554688 4.5 -2.265625 Z M 4.03125 -3.53125 C 4.820312 -3.96875 5.253906 -4.597656 5.328125 -5.421875 C 5.410156 -6.253906 5.1875 -7.148438 4.65625 -8.109375 C 4.125 -9.066406 3.488281 -9.722656 2.75 -10.078125 C 2.019531 -10.429688 1.257812 -10.390625 0.46875 -9.953125 C -0.0820312 -9.640625 -0.460938 -9.242188 -0.671875 -8.765625 C -0.878906 -8.285156 -0.941406 -7.753906 -0.859375 -7.171875 C -0.773438 -6.585938 -0.566406 -5.992188 -0.234375 -5.390625 C 0.0976562 -4.796875 0.488281 -4.300781 0.9375 -3.90625 C 1.394531 -3.519531 1.890625 -3.285156 2.421875 -3.203125 C 2.953125 -3.117188 3.488281 -3.226562 4.03125 -3.53125 Z M 4.03125 -3.53125 "/></g></g></g><g fill="#000000" fill-opacity="1"><g transform="translate(84.371529, 45.053838)"><g><path d="M 5.046875 -1.65625 C 4.222656 -1.351562 3.429688 -1.28125 2.671875 -1.4375 C 1.910156 -1.601562 1.222656 -1.972656 0.609375 -2.546875 C 0.00390625 -3.117188 -0.472656 -3.875 -0.828125 -4.8125 C -1.179688 -5.757812 -1.3125 -6.648438 -1.21875 -7.484375 C -1.132812 -8.328125 -0.859375 -9.054688 -0.390625 -9.671875 C 0.078125 -10.296875 0.722656 -10.757812 1.546875 -11.0625 C 2.367188 -11.375 3.160156 -11.445312 3.921875 -11.28125 C 4.691406 -11.113281 5.378906 -10.738281 5.984375 -10.15625 C 6.585938 -9.582031 7.066406 -8.820312 7.421875 -7.875 C 7.773438 -6.9375 7.910156 -6.050781 7.828125 -5.21875 C 7.742188 -4.382812 7.460938 -3.660156 6.984375 -3.046875 C 6.515625 -2.429688 5.867188 -1.96875 5.046875 -1.65625 Z M 4.578125 -2.90625 C 5.203125 -3.132812 5.65625 -3.484375 5.9375 -3.953125 C 6.226562 -4.421875 6.367188 -4.953125 6.359375 -5.546875 C 6.359375 -6.148438 6.242188 -6.753906 6.015625 -7.359375 C 5.796875 -7.960938 5.492188 -8.488281 5.109375 -8.9375 C 4.722656 -9.394531 4.265625 -9.707031 3.734375 -9.875 C 3.210938 -10.050781 2.640625 -10.023438 2.015625 -9.796875 C 1.398438 -9.566406 0.945312 -9.210938 0.65625 -8.734375 C 0.375 -8.265625 0.234375 -7.734375 0.234375 -7.140625 C 0.242188 -6.546875 0.359375 -5.945312 0.578125 -5.34375 C 0.804688 -4.738281 1.113281 -4.207031 1.5 -3.75 C 1.882812 -3.289062 2.335938 -2.976562 2.859375 -2.8125 C 3.390625 -2.644531 3.960938 -2.675781 4.578125 -2.90625 Z M 4.578125 -2.90625 "/></g></g></g><g fill="#000000" fill-opacity="1"><g transform="translate(93.333423, 41.461664)"><g><path d="M 3.5 -0.640625 L -1.171875 -9.65625 L 0.375 -9.9375 L 3.78125 -3.015625 L 3.890625 -3.03125 L 4.5625 -10.71875 L 6.125 -11 L 9.484375 -4.09375 L 9.578125 -4.109375 L 10.3125 -11.78125 L 11.84375 -12.0625 L 10.703125 -1.984375 L 9.265625 -1.71875 L 5.8125 -8.65625 L 5.65625 -8.625 L 4.953125 -0.90625 Z M 3.5 -0.640625 "/></g></g></g><g fill="#000000" fill-opacity="1"><g transform="translate(106.594315, 39.102412)"><g><path d="M 2.796875 -5.859375 L 2.859375 -0.03125 L 1.359375 -0.015625 L 1.25 -9.71875 L 2.6875 -9.734375 L 2.703125 -8.21875 L 2.84375 -8.21875 C 3.0625 -8.707031 3.398438 -9.101562 3.859375 -9.40625 C 4.316406 -9.71875 4.914062 -9.878906 5.65625 -9.890625 C 6.632812 -9.898438 7.425781 -9.609375 8.03125 -9.015625 C 8.644531 -8.421875 8.960938 -7.503906 8.984375 -6.265625 L 9.046875 -0.109375 L 7.546875 -0.078125 L 7.484375 -6.140625 C 7.472656 -6.898438 7.265625 -7.492188 6.859375 -7.921875 C 6.460938 -8.347656 5.921875 -8.554688 5.234375 -8.546875 C 4.523438 -8.535156 3.9375 -8.296875 3.46875 -7.828125 C 3.007812 -7.367188 2.785156 -6.710938 2.796875 -5.859375 Z M 2.796875 -5.859375 "/></g></g></g><g fill="#000000" fill-opacity="1"><g transform="translate(116.382462, 39.102374)"><g/></g></g><g fill="#000000" fill-opacity="1"><g transform="translate(120.911348, 39.486331)"><g><path d="M 7.171875 -8.59375 L 6.953125 -7.34375 L 4.921875 -7.703125 L 3.953125 -2.125 C 3.878906 -1.707031 3.882812 -1.382812 3.96875 -1.15625 C 4.050781 -0.9375 4.179688 -0.773438 4.359375 -0.671875 C 4.546875 -0.566406 4.742188 -0.5 4.953125 -0.46875 C 5.117188 -0.4375 5.253906 -0.421875 5.359375 -0.421875 C 5.460938 -0.429688 5.546875 -0.4375 5.609375 -0.4375 L 5.6875 0.953125 C 5.582031 0.960938 5.4375 0.972656 5.25 0.984375 C 5.0625 0.992188 4.832031 0.972656 4.5625 0.921875 C 4.144531 0.847656 3.753906 0.6875 3.390625 0.4375 C 3.023438 0.1875 2.742188 -0.140625 2.546875 -0.546875 C 2.347656 -0.960938 2.296875 -1.445312 2.390625 -2 L 3.4375 -7.96875 L 2 -8.21875 L 2.21875 -9.46875 L 3.65625 -9.21875 L 4.0625 -11.484375 L 5.546875 -11.21875 L 5.140625 -8.953125 Z M 7.171875 -8.59375 "/></g></g></g><g fill="#000000" fill-opacity="1"><g transform="translate(126.650469, 40.330505)"><g><path d="M 5.015625 1.703125 C 4.171875 1.453125 3.492188 1.035156 2.984375 0.453125 C 2.484375 -0.128906 2.164062 -0.832031 2.03125 -1.65625 C 1.894531 -2.476562 1.96875 -3.367188 2.25 -4.328125 C 2.539062 -5.296875 2.972656 -6.085938 3.546875 -6.703125 C 4.117188 -7.328125 4.773438 -7.742188 5.515625 -7.953125 C 6.265625 -8.160156 7.0625 -8.140625 7.90625 -7.890625 C 8.75 -7.628906 9.425781 -7.207031 9.9375 -6.625 C 10.445312 -6.039062 10.769531 -5.332031 10.90625 -4.5 C 11.039062 -3.664062 10.960938 -2.765625 10.671875 -1.796875 C 10.390625 -0.835938 9.960938 -0.0546875 9.390625 0.546875 C 8.816406 1.160156 8.15625 1.570312 7.40625 1.78125 C 6.65625 1.988281 5.859375 1.960938 5.015625 1.703125 Z M 5.40625 0.421875 C 6.039062 0.617188 6.613281 0.617188 7.125 0.421875 C 7.632812 0.222656 8.066406 -0.113281 8.421875 -0.59375 C 8.773438 -1.070312 9.046875 -1.617188 9.234375 -2.234375 C 9.421875 -2.847656 9.492188 -3.453125 9.453125 -4.046875 C 9.421875 -4.648438 9.25 -5.175781 8.9375 -5.625 C 8.625 -6.082031 8.148438 -6.410156 7.515625 -6.609375 C 6.878906 -6.796875 6.304688 -6.785156 5.796875 -6.578125 C 5.285156 -6.367188 4.847656 -6.023438 4.484375 -5.546875 C 4.128906 -5.066406 3.859375 -4.519531 3.671875 -3.90625 C 3.484375 -3.289062 3.410156 -2.679688 3.453125 -2.078125 C 3.492188 -1.484375 3.671875 -0.960938 3.984375 -0.515625 C 4.296875 -0.078125 4.769531 0.234375 5.40625 0.421875 Z M 5.40625 0.421875 "/></g></g></g><g fill="#000000" fill-opacity="1"><g transform="translate(136.176343, 43.313628)"><g/></g></g><g fill="#000000" fill-opacity="1"><g transform="translate(140.29836, 44.861725)"><g><path d="M 4.671875 2.796875 C 3.847656 2.347656 3.238281 1.773438 2.84375 1.078125 C 2.445312 0.390625 2.269531 -0.363281 2.3125 -1.1875 C 2.363281 -2.019531 2.628906 -2.875 3.109375 -3.75 C 3.585938 -4.613281 4.171875 -5.289062 4.859375 -5.78125 C 5.546875 -6.269531 6.273438 -6.539062 7.046875 -6.59375 C 7.828125 -6.644531 8.601562 -6.457031 9.375 -6.03125 C 9.8125 -5.789062 10.203125 -5.476562 10.546875 -5.09375 C 10.898438 -4.707031 11.160156 -4.253906 11.328125 -3.734375 C 11.503906 -3.210938 11.546875 -2.617188 11.453125 -1.953125 C 11.367188 -1.285156 11.109375 -0.554688 10.671875 0.234375 L 10.375 0.78125 L 4.21875 -2.625 C 3.738281 -1.71875 3.601562 -0.890625 3.8125 -0.140625 C 4.03125 0.609375 4.53125 1.195312 5.3125 1.625 C 5.820312 1.914062 6.320312 2.050781 6.8125 2.03125 C 7.300781 2.019531 7.75 1.832031 8.15625 1.46875 L 9.234375 2.53125 C 8.671875 3.050781 7.984375 3.34375 7.171875 3.40625 C 6.359375 3.476562 5.523438 3.273438 4.671875 2.796875 Z M 4.828125 -3.75 L 9.671875 -1.078125 C 10.066406 -1.796875 10.179688 -2.507812 10.015625 -3.21875 C 9.859375 -3.925781 9.429688 -4.472656 8.734375 -4.859375 C 8.234375 -5.140625 7.734375 -5.265625 7.234375 -5.234375 C 6.742188 -5.210938 6.285156 -5.066406 5.859375 -4.796875 C 5.441406 -4.535156 5.097656 -4.1875 4.828125 -3.75 Z M 4.828125 -3.75 "/></g></g></g><g fill="#000000" fill-opacity="1"><g transform="translate(148.686644, 49.469411)"><g><path d="M 7.78125 -6.28125 L 7.28125 -1.71875 L 11.515625 -3.5 L 12.890625 -2.46875 L 7.46875 -0.453125 L 7.078125 5.296875 L 5.703125 4.265625 L 6.09375 -0.140625 L 1.96875 1.484375 L 0.59375 0.453125 L 5.984375 -1.578125 L 6.40625 -7.3125 Z M 7.78125 -6.28125 "/></g></g></g><g fill="#000000" fill-opacity="1"><g transform="translate(155.790973, 54.662058)"><g><path d="M -1.59375 3.53125 L 7.8125 -5.921875 L 8.828125 -4.90625 L 7.734375 -3.8125 L 7.859375 -3.671875 C 8.054688 -3.710938 8.316406 -3.753906 8.640625 -3.796875 C 8.972656 -3.847656 9.34375 -3.816406 9.75 -3.703125 C 10.164062 -3.597656 10.59375 -3.328125 11.03125 -2.890625 C 11.613281 -2.304688 11.976562 -1.648438 12.125 -0.921875 C 12.269531 -0.191406 12.203125 0.554688 11.921875 1.328125 C 11.648438 2.109375 11.15625 2.859375 10.4375 3.578125 C 9.707031 4.304688 8.953125 4.8125 8.171875 5.09375 C 7.398438 5.382812 6.648438 5.457031 5.921875 5.3125 C 5.191406 5.164062 4.546875 4.8125 3.984375 4.25 C 3.535156 3.800781 3.25 3.367188 3.125 2.953125 C 3.007812 2.546875 2.972656 2.175781 3.015625 1.84375 C 3.054688 1.519531 3.101562 1.257812 3.15625 1.0625 L 3.078125 0.96875 L -0.53125 4.59375 Z M 5.421875 -1.4375 C 4.648438 -0.65625 4.191406 0.144531 4.046875 0.96875 C 3.898438 1.789062 4.144531 2.515625 4.78125 3.140625 C 5.226562 3.585938 5.710938 3.84375 6.234375 3.90625 C 6.753906 3.96875 7.289062 3.875 7.84375 3.625 C 8.394531 3.375 8.914062 3.003906 9.40625 2.515625 C 9.882812 2.035156 10.242188 1.523438 10.484375 0.984375 C 10.722656 0.453125 10.804688 -0.0703125 10.734375 -0.59375 C 10.660156 -1.125 10.398438 -1.613281 9.953125 -2.0625 C 9.316406 -2.695312 8.59375 -2.941406 7.78125 -2.796875 C 6.976562 -2.660156 6.191406 -2.207031 5.421875 -1.4375 Z M 5.421875 -1.4375 "/></g></g></g><g fill="#000000" fill-opacity="1"><g transform="translate(162.938025, 61.981787)"><g><path d="M 11.84375 -5.953125 L 1.8125 2.21875 L 0.859375 1.046875 L 10.890625 -7.125 Z M 11.84375 -5.953125 "/></g></g></g><g fill="#000000" fill-opacity="1"><g transform="translate(165.384081, 64.68354)"><g><path d="M 2.734375 4.53125 C 2.253906 3.800781 2.007812 3.046875 2 2.265625 C 1.988281 1.492188 2.191406 0.742188 2.609375 0.015625 C 3.035156 -0.703125 3.671875 -1.335938 4.515625 -1.890625 C 5.359375 -2.441406 6.195312 -2.765625 7.03125 -2.859375 C 7.863281 -2.960938 8.632812 -2.851562 9.34375 -2.53125 C 10.050781 -2.21875 10.644531 -1.695312 11.125 -0.96875 C 11.613281 -0.226562 11.863281 0.53125 11.875 1.3125 C 11.882812 2.09375 11.675781 2.84375 11.25 3.5625 C 10.820312 4.28125 10.1875 4.914062 9.34375 5.46875 C 8.5 6.019531 7.660156 6.347656 6.828125 6.453125 C 6.003906 6.554688 5.238281 6.445312 4.53125 6.125 C 3.820312 5.800781 3.222656 5.269531 2.734375 4.53125 Z M 3.859375 3.796875 C 4.222656 4.359375 4.664062 4.722656 5.1875 4.890625 C 5.707031 5.066406 6.253906 5.085938 6.828125 4.953125 C 7.410156 4.816406 7.972656 4.570312 8.515625 4.21875 C 9.046875 3.863281 9.492188 3.445312 9.859375 2.96875 C 10.222656 2.488281 10.425781 1.972656 10.46875 1.421875 C 10.519531 0.878906 10.363281 0.328125 10 -0.234375 C 9.644531 -0.773438 9.203125 -1.132812 8.671875 -1.3125 C 8.148438 -1.488281 7.597656 -1.503906 7.015625 -1.359375 C 6.429688 -1.222656 5.875 -0.976562 5.34375 -0.625 C 4.800781 -0.269531 4.347656 0.140625 3.984375 0.609375 C 3.628906 1.085938 3.429688 1.601562 3.390625 2.15625 C 3.347656 2.707031 3.503906 3.253906 3.859375 3.796875 Z M 3.859375 3.796875 "/></g></g></g><g fill="#000000" fill-opacity="1"><g transform="translate(170.767486, 73.006342)"><g><path d="M 0.609375 1.21875 L 9.296875 -3.09375 L 9.9375 -1.8125 L 8.625 -1.15625 L 8.671875 -1.046875 C 9.171875 -1.117188 9.65625 -1.007812 10.125 -0.71875 C 10.59375 -0.4375 10.960938 -0.03125 11.234375 0.5 C 11.347656 0.726562 11.421875 0.945312 11.453125 1.15625 C 11.484375 1.363281 11.492188 1.5625 11.484375 1.75 L 10.109375 1.859375 C 10.109375 1.734375 10.09375 1.601562 10.0625 1.46875 C 10.03125 1.332031 9.972656 1.179688 9.890625 1.015625 C 9.578125 0.390625 9.117188 -0.03125 8.515625 -0.25 C 7.921875 -0.476562 7.335938 -0.453125 6.765625 -0.171875 L 1.265625 2.5625 Z M 0.609375 1.21875 "/></g></g></g><g fill="#000000" fill-opacity="1"><g transform="translate(173.632571, 78.446769)"><g><path d="M 1.640625 5.1875 C 1.328125 4.300781 1.25 3.46875 1.40625 2.6875 C 1.570312 1.914062 1.941406 1.234375 2.515625 0.640625 C 3.097656 0.046875 3.859375 -0.414062 4.796875 -0.75 C 5.734375 -1.082031 6.617188 -1.203125 7.453125 -1.109375 C 8.296875 -1.023438 9.023438 -0.742188 9.640625 -0.265625 C 10.265625 0.203125 10.726562 0.847656 11.03125 1.671875 C 11.195312 2.148438 11.28125 2.648438 11.28125 3.171875 C 11.289062 3.691406 11.1875 4.203125 10.96875 4.703125 C 10.75 5.210938 10.382812 5.6875 9.875 6.125 C 9.375 6.5625 8.703125 6.929688 7.859375 7.234375 L 7.265625 7.453125 L 4.90625 0.8125 C 3.945312 1.1875 3.296875 1.722656 2.953125 2.421875 C 2.617188 3.128906 2.601562 3.898438 2.90625 4.734375 C 3.101562 5.285156 3.390625 5.71875 3.765625 6.03125 C 4.140625 6.34375 4.597656 6.503906 5.140625 6.515625 L 5.25 8 C 4.476562 8.03125 3.765625 7.796875 3.109375 7.296875 C 2.453125 6.804688 1.960938 6.101562 1.640625 5.1875 Z M 6.109375 0.375 L 7.96875 5.578125 C 8.738281 5.304688 9.296875 4.851562 9.640625 4.21875 C 9.984375 3.582031 10.023438 2.882812 9.765625 2.125 C 9.566406 1.59375 9.269531 1.171875 8.875 0.859375 C 8.488281 0.554688 8.050781 0.363281 7.5625 0.28125 C 7.082031 0.207031 6.597656 0.238281 6.109375 0.375 Z M 6.109375 0.375 "/></g></g></g><g fill="#000000" fill-opacity="1"><g transform="translate(176.917726, 123.906852)"><g><path d="M 6.15625 11.453125 C 6.78125 11.585938 7.351562 11.460938 7.875 11.078125 C 8.394531 10.691406 8.785156 10.132812 9.046875 9.40625 C 9.347656 8.59375 9.394531 7.867188 9.1875 7.234375 C 8.976562 6.609375 8.585938 6.191406 8.015625 5.984375 C 7.578125 5.816406 7.175781 5.820312 6.8125 6 C 6.445312 6.175781 6.125 6.414062 5.84375 6.71875 C 5.5625 7.03125 5.320312 7.320312 5.125 7.59375 L 4.359375 8.703125 C 4.148438 8.992188 3.898438 9.304688 3.609375 9.640625 C 3.328125 9.972656 2.992188 10.269531 2.609375 10.53125 C 2.234375 10.800781 1.804688 10.984375 1.328125 11.078125 C 0.859375 11.171875 0.335938 11.113281 -0.234375 10.90625 C -0.890625 10.664062 -1.421875 10.273438 -1.828125 9.734375 C -2.234375 9.203125 -2.472656 8.550781 -2.546875 7.78125 C -2.617188 7.007812 -2.488281 6.160156 -2.15625 5.234375 C -1.675781 3.929688 -0.988281 3.007812 -0.09375 2.46875 C 0.800781 1.925781 1.757812 1.800781 2.78125 2.09375 L 2.21875 3.609375 C 1.75 3.484375 1.316406 3.5 0.921875 3.65625 C 0.523438 3.820312 0.179688 4.085938 -0.109375 4.453125 C -0.410156 4.816406 -0.648438 5.238281 -0.828125 5.71875 C -1.023438 6.28125 -1.113281 6.816406 -1.09375 7.328125 C -1.070312 7.847656 -0.941406 8.296875 -0.703125 8.671875 C -0.472656 9.054688 -0.140625 9.328125 0.296875 9.484375 C 0.710938 9.640625 1.085938 9.648438 1.421875 9.515625 C 1.753906 9.378906 2.066406 9.15625 2.359375 8.84375 C 2.648438 8.53125 2.929688 8.1875 3.203125 7.8125 L 4.171875 6.46875 C 4.804688 5.613281 5.472656 5 6.171875 4.625 C 6.867188 4.257812 7.628906 4.226562 8.453125 4.53125 C 9.128906 4.78125 9.65625 5.179688 10.03125 5.734375 C 10.40625 6.285156 10.617188 6.925781 10.671875 7.65625 C 10.722656 8.382812 10.609375 9.140625 10.328125 9.921875 C 10.046875 10.703125 9.65625 11.347656 9.15625 11.859375 C 8.65625 12.367188 8.097656 12.710938 7.484375 12.890625 C 6.867188 13.078125 6.253906 13.070312 5.640625 12.875 Z M 6.15625 11.453125 "/></g></g></g><g fill="#000000" fill-opacity="1"><g transform="translate(173.332361, 133.781327)"><g><path d="M -2.6875 4.5625 C -2.257812 3.769531 -1.695312 3.1875 -1 2.8125 C -0.3125 2.4375 0.441406 2.269531 1.265625 2.3125 C 2.085938 2.363281 2.925781 2.617188 3.78125 3.078125 C 4.65625 3.546875 5.335938 4.117188 5.828125 4.796875 C 6.316406 5.484375 6.59375 6.210938 6.65625 6.984375 C 6.71875 7.765625 6.539062 8.539062 6.125 9.3125 C 5.800781 9.90625 5.394531 10.382812 4.90625 10.75 C 4.425781 11.113281 3.90625 11.34375 3.34375 11.4375 C 2.78125 11.53125 2.210938 11.472656 1.640625 11.265625 L 2.359375 9.9375 C 2.796875 10.050781 3.257812 10.015625 3.75 9.828125 C 4.238281 9.648438 4.640625 9.269531 4.953125 8.6875 C 5.359375 7.925781 5.394531 7.15625 5.0625 6.375 C 4.738281 5.59375 4.09375 4.941406 3.125 4.421875 C 2.132812 3.878906 1.21875 3.679688 0.375 3.828125 C -0.46875 3.972656 -1.097656 4.429688 -1.515625 5.203125 C -1.796875 5.710938 -1.90625 6.222656 -1.84375 6.734375 C -1.78125 7.242188 -1.546875 7.679688 -1.140625 8.046875 L -1.859375 9.375 C -2.316406 9.019531 -2.671875 8.585938 -2.921875 8.078125 C -3.171875 7.566406 -3.28125 7.007812 -3.25 6.40625 C -3.21875 5.8125 -3.03125 5.195312 -2.6875 4.5625 Z M -2.6875 4.5625 "/></g></g></g><g fill="#000000" fill-opacity="1"><g transform="translate(168.880768, 141.89917)"><g><path d="M -0.78125 1.109375 L 7.15625 6.671875 L 6.328125 7.859375 L 5.140625 7.03125 L 5.078125 7.109375 C 5.367188 7.515625 5.503906 7.992188 5.484375 8.546875 C 5.460938 9.097656 5.28125 9.617188 4.9375 10.109375 C 4.789062 10.316406 4.628906 10.484375 4.453125 10.609375 C 4.285156 10.742188 4.117188 10.847656 3.953125 10.921875 L 3.21875 9.78125 C 3.320312 9.707031 3.425781 9.625 3.53125 9.53125 C 3.632812 9.4375 3.738281 9.316406 3.84375 9.171875 C 4.25 8.597656 4.40625 7.992188 4.3125 7.359375 C 4.226562 6.734375 3.921875 6.238281 3.390625 5.875 L -1.640625 2.34375 Z M -0.78125 1.109375 "/></g></g></g><g fill="#000000" fill-opacity="1"><g transform="translate(165.485112, 147.016544)"><g><path d="M -3.6875 3.796875 C -3.101562 3.148438 -2.4375 2.722656 -1.6875 2.515625 C -0.9375 2.304688 -0.160156 2.3125 0.640625 2.53125 C 1.441406 2.757812 2.210938 3.207031 2.953125 3.875 C 3.710938 4.550781 4.25 5.28125 4.5625 6.0625 C 4.882812 6.84375 4.976562 7.613281 4.84375 8.375 C 4.71875 9.144531 4.363281 9.851562 3.78125 10.5 C 3.1875 11.15625 2.515625 11.585938 1.765625 11.796875 C 1.023438 12.015625 0.25 12.007812 -0.5625 11.78125 C -1.375 11.550781 -2.160156 11.097656 -2.921875 10.421875 C -3.660156 9.753906 -4.179688 9.03125 -4.484375 8.25 C -4.796875 7.476562 -4.890625 6.707031 -4.765625 5.9375 C -4.640625 5.164062 -4.28125 4.453125 -3.6875 3.796875 Z M -2.6875 4.703125 C -3.132812 5.203125 -3.375 5.722656 -3.40625 6.265625 C -3.445312 6.816406 -3.328125 7.351562 -3.046875 7.875 C -2.773438 8.40625 -2.398438 8.882812 -1.921875 9.3125 C -1.429688 9.75 -0.910156 10.078125 -0.359375 10.296875 C 0.191406 10.523438 0.738281 10.59375 1.28125 10.5 C 1.832031 10.40625 2.332031 10.109375 2.78125 9.609375 C 3.21875 9.117188 3.453125 8.597656 3.484375 8.046875 C 3.515625 7.503906 3.390625 6.96875 3.109375 6.4375 C 2.828125 5.914062 2.441406 5.4375 1.953125 5 C 1.472656 4.570312 0.957031 4.242188 0.40625 4.015625 C -0.132812 3.796875 -0.675781 3.734375 -1.21875 3.828125 C -1.757812 3.921875 -2.25 4.210938 -2.6875 4.703125 Z M -2.6875 4.703125 "/></g></g></g><g fill="#000000" fill-opacity="1"><g transform="translate(158.697363, 154.375155)"><g><path d="M 6.5625 11.5 L -2.125 1.921875 L -1 0.90625 L 7.6875 10.484375 Z M 6.5625 11.5 "/></g></g></g><g fill="#000000" fill-opacity="1"><g transform="translate(155.830677, 156.990471)"><g><path d="M 5.90625 11.859375 L -2.21875 1.796875 L -1.0625 0.859375 L 7.0625 10.921875 Z M 5.90625 11.859375 "/></g></g></g><g fill="#000000" fill-opacity="1"><g transform="translate(152.850556, 159.429529)"><g/></g></g><g fill="#000000" fill-opacity="1"><g transform="translate(149.393307, 162.117687)"><g><path d="M -4.5 2.265625 C -3.789062 1.867188 -3.0625 1.695312 -2.3125 1.75 C -1.570312 1.8125 -0.867188 2.085938 -0.203125 2.578125 C 0.460938 3.066406 1.039062 3.757812 1.53125 4.65625 C 2.03125 5.550781 2.304688 6.40625 2.359375 7.21875 C 2.421875 8.039062 2.273438 8.785156 1.921875 9.453125 C 1.578125 10.117188 1.046875 10.648438 0.328125 11.046875 C -0.222656 11.359375 -0.707031 11.507812 -1.125 11.5 C -1.550781 11.5 -1.914062 11.425781 -2.21875 11.28125 C -2.519531 11.144531 -2.757812 11.03125 -2.9375 10.9375 L -3.046875 11 L -0.734375 15.1875 L -2.03125 15.90625 L -8.28125 4.578125 L -7.03125 3.890625 L -6.3125 5.1875 L -6.15625 5.09375 C -6.144531 4.882812 -6.113281 4.613281 -6.0625 4.28125 C -6.019531 3.957031 -5.882812 3.613281 -5.65625 3.25 C -5.425781 2.882812 -5.039062 2.554688 -4.5 2.265625 Z M -4.03125 3.53125 C -4.820312 3.96875 -5.253906 4.597656 -5.328125 5.421875 C -5.410156 6.253906 -5.1875 7.148438 -4.65625 8.109375 C -4.125 9.066406 -3.488281 9.722656 -2.75 10.078125 C -2.019531 10.429688 -1.257812 10.390625 -0.46875 9.953125 C 0.0820312 9.640625 0.460938 9.242188 0.671875 8.765625 C 0.878906 8.285156 0.941406 7.753906 0.859375 7.171875 C 0.773438 6.585938 0.566406 5.992188 0.234375 5.390625 C -0.0976562 4.796875 -0.488281 4.300781 -0.9375 3.90625 C -1.394531 3.519531 -1.890625 3.285156 -2.421875 3.203125 C -2.953125 3.117188 -3.488281 3.226562 -4.03125 3.53125 Z M -4.03125 3.53125 "/></g></g></g><g fill="#000000" fill-opacity="1"><g transform="translate(140.497038, 167.087202)"><g><path d="M -5.046875 1.65625 C -4.222656 1.351562 -3.429688 1.28125 -2.671875 1.4375 C -1.910156 1.601562 -1.222656 1.972656 -0.609375 2.546875 C -0.00390625 3.117188 0.472656 3.875 0.828125 4.8125 C 1.179688 5.757812 1.3125 6.648438 1.21875 7.484375 C 1.132812 8.328125 0.859375 9.054688 0.390625 9.671875 C -0.078125 10.296875 -0.722656 10.757812 -1.546875 11.0625 C -2.367188 11.375 -3.160156 11.445312 -3.921875 11.28125 C -4.691406 11.113281 -5.378906 10.738281 -5.984375 10.15625 C -6.585938 9.582031 -7.066406 8.820312 -7.421875 7.875 C -7.773438 6.9375 -7.910156 6.050781 -7.828125 5.21875 C -7.742188 4.382812 -7.460938 3.660156 -6.984375 3.046875 C -6.515625 2.429688 -5.867188 1.96875 -5.046875 1.65625 Z M -4.578125 2.90625 C -5.203125 3.132812 -5.65625 3.484375 -5.9375 3.953125 C -6.226562 4.421875 -6.367188 4.953125 -6.359375 5.546875 C -6.359375 6.148438 -6.242188 6.753906 -6.015625 7.359375 C -5.796875 7.960938 -5.492188 8.488281 -5.109375 8.9375 C -4.722656 9.394531 -4.265625 9.707031 -3.734375 9.875 C -3.210938 10.050781 -2.640625 10.023438 -2.015625 9.796875 C -1.398438 9.566406 -0.945312 9.210938 -0.65625 8.734375 C -0.375 8.265625 -0.234375 7.734375 -0.234375 7.140625 C -0.242188 6.546875 -0.359375 5.945312 -0.578125 5.34375 C -0.804688 4.738281 -1.113281 4.207031 -1.5 3.75 C -1.882812 3.289062 -2.335938 2.976562 -2.859375 2.8125 C -3.390625 2.644531 -3.960938 2.675781 -4.578125 2.90625 Z M -4.578125 2.90625 "/></g></g></g><g fill="#000000" fill-opacity="1"><g transform="translate(131.535139, 170.679368)"><g><path d="M -3.5 0.640625 L 1.171875 9.65625 L -0.375 9.9375 L -3.78125 3.015625 L -3.890625 3.03125 L -4.5625 10.71875 L -6.125 11 L -9.484375 4.09375 L -9.578125 4.109375 L -10.3125 11.78125 L -11.84375 12.0625 L -10.703125 1.984375 L -9.265625 1.71875 L -5.8125 8.65625 L -5.65625 8.625 L -4.953125 0.90625 Z M -3.5 0.640625 "/></g></g></g><g fill="#000000" fill-opacity="1"><g transform="translate(118.274262, 173.038621)"><g><path d="M -2.796875 5.859375 L -2.859375 0.03125 L -1.359375 0.015625 L -1.25 9.71875 L -2.6875 9.734375 L -2.703125 8.21875 L -2.84375 8.21875 C -3.0625 8.707031 -3.398438 9.101562 -3.859375 9.40625 C -4.316406 9.71875 -4.914062 9.878906 -5.65625 9.890625 C -6.632812 9.898438 -7.425781 9.609375 -8.03125 9.015625 C -8.644531 8.421875 -8.960938 7.503906 -8.984375 6.265625 L -9.046875 0.109375 L -7.546875 0.078125 L -7.484375 6.140625 C -7.472656 6.898438 -7.265625 7.492188 -6.859375 7.921875 C -6.460938 8.347656 -5.921875 8.554688 -5.234375 8.546875 C -4.523438 8.535156 -3.9375 8.296875 -3.46875 7.828125 C -3.007812 7.367188 -2.785156 6.710938 -2.796875 5.859375 Z M -2.796875 5.859375 "/></g></g></g><g fill="#000000" fill-opacity="1"><g transform="translate(108.486123, 173.038665)"><g/></g></g><g fill="#000000" fill-opacity="1"><g transform="translate(103.957222, 172.654713)"><g><path d="M -7.171875 8.59375 L -6.953125 7.34375 L -4.921875 7.703125 L -3.953125 2.125 C -3.878906 1.707031 -3.882812 1.382812 -3.96875 1.15625 C -4.050781 0.9375 -4.179688 0.773438 -4.359375 0.671875 C -4.546875 0.566406 -4.742188 0.5 -4.953125 0.46875 C -5.117188 0.4375 -5.253906 0.421875 -5.359375 0.421875 C -5.460938 0.429688 -5.546875 0.4375 -5.609375 0.4375 L -5.6875 -0.953125 C -5.582031 -0.960938 -5.4375 -0.972656 -5.25 -0.984375 C -5.0625 -0.992188 -4.832031 -0.972656 -4.5625 -0.921875 C -4.144531 -0.847656 -3.753906 -0.6875 -3.390625 -0.4375 C -3.023438 -0.1875 -2.742188 0.140625 -2.546875 0.546875 C -2.347656 0.960938 -2.296875 1.445312 -2.390625 2 L -3.4375 7.96875 L -2 8.21875 L -2.21875 9.46875 L -3.65625 9.21875 L -4.0625 11.484375 L -5.546875 11.21875 L -5.140625 8.953125 Z M -7.171875 8.59375 "/></g></g></g><g fill="#000000" fill-opacity="1"><g transform="translate(98.218109, 171.810535)"><g><path d="M -5.015625 -1.703125 C -4.171875 -1.453125 -3.492188 -1.035156 -2.984375 -0.453125 C -2.484375 0.128906 -2.164062 0.832031 -2.03125 1.65625 C -1.894531 2.476562 -1.96875 3.367188 -2.25 4.328125 C -2.539062 5.296875 -2.972656 6.085938 -3.546875 6.703125 C -4.117188 7.328125 -4.773438 7.742188 -5.515625 7.953125 C -6.265625 8.160156 -7.0625 8.140625 -7.90625 7.890625 C -8.75 7.628906 -9.425781 7.207031 -9.9375 6.625 C -10.445312 6.039062 -10.769531 5.332031 -10.90625 4.5 C -11.039062 3.664062 -10.960938 2.765625 -10.671875 1.796875 C -10.390625 0.835938 -9.960938 0.0546875 -9.390625 -0.546875 C -8.816406 -1.160156 -8.15625 -1.570312 -7.40625 -1.78125 C -6.65625 -1.988281 -5.859375 -1.960938 -5.015625 -1.703125 Z M -5.40625 -0.421875 C -6.039062 -0.617188 -6.613281 -0.617188 -7.125 -0.421875 C -7.632812 -0.222656 -8.066406 0.113281 -8.421875 0.59375 C -8.773438 1.070312 -9.046875 1.617188 -9.234375 2.234375 C -9.421875 2.847656 -9.492188 3.453125 -9.453125 4.046875 C -9.421875 4.648438 -9.25 5.175781 -8.9375 5.625 C -8.625 6.082031 -8.148438 6.410156 -7.515625 6.609375 C -6.878906 6.796875 -6.304688 6.785156 -5.796875 6.578125 C -5.285156 6.367188 -4.847656 6.023438 -4.484375 5.546875 C -4.128906 5.066406 -3.859375 4.519531 -3.671875 3.90625 C -3.484375 3.289062 -3.410156 2.679688 -3.453125 2.078125 C -3.492188 1.484375 -3.671875 0.960938 -3.984375 0.515625 C -4.296875 0.078125 -4.769531 -0.234375 -5.40625 -0.421875 Z M -5.40625 -0.421875 "/></g></g></g><g fill="#000000" fill-opacity="1"><g transform="translate(88.692225, 168.827406)"><g/></g></g><g fill="#000000" fill-opacity="1"><g transform="translate(84.570209, 167.279309)"><g><path d="M -4.671875 -2.796875 C -3.847656 -2.347656 -3.238281 -1.773438 -2.84375 -1.078125 C -2.445312 -0.390625 -2.269531 0.363281 -2.3125 1.1875 C -2.363281 2.019531 -2.628906 2.875 -3.109375 3.75 C -3.585938 4.613281 -4.171875 5.289062 -4.859375 5.78125 C -5.546875 6.269531 -6.273438 6.539062 -7.046875 6.59375 C -7.828125 6.644531 -8.601562 6.457031 -9.375 6.03125 C -9.8125 5.789062 -10.203125 5.476562 -10.546875 5.09375 C -10.898438 4.707031 -11.160156 4.253906 -11.328125 3.734375 C -11.503906 3.210938 -11.546875 2.617188 -11.453125 1.953125 C -11.367188 1.285156 -11.109375 0.554688 -10.671875 -0.234375 L -10.375 -0.78125 L -4.21875 2.625 C -3.738281 1.71875 -3.601562 0.890625 -3.8125 0.140625 C -4.03125 -0.609375 -4.53125 -1.195312 -5.3125 -1.625 C -5.820312 -1.914062 -6.320312 -2.050781 -6.8125 -2.03125 C -7.300781 -2.019531 -7.75 -1.832031 -8.15625 -1.46875 L -9.234375 -2.53125 C -8.671875 -3.050781 -7.984375 -3.34375 -7.171875 -3.40625 C -6.359375 -3.476562 -5.523438 -3.273438 -4.671875 -2.796875 Z M -4.828125 3.75 L -9.671875 1.078125 C -10.066406 1.796875 -10.179688 2.507812 -10.015625 3.21875 C -9.859375 3.925781 -9.429688 4.472656 -8.734375 4.859375 C -8.234375 5.140625 -7.734375 5.265625 -7.234375 5.234375 C -6.742188 5.210938 -6.285156 5.066406 -5.859375 4.796875 C -5.441406 4.535156 -5.097656 4.1875 -4.828125 3.75 Z M -4.828125 3.75 "/></g></g></g><g fill="#000000" fill-opacity="1"><g transform="translate(76.181917, 162.671625)"><g><path d="M -7.78125 6.28125 L -7.28125 1.71875 L -11.515625 3.5 L -12.890625 2.46875 L -7.46875 0.453125 L -7.078125 -5.296875 L -5.703125 -4.265625 L -6.09375 0.140625 L -1.96875 -1.484375 L -0.59375 -0.453125 L -5.984375 1.578125 L -6.40625 7.3125 Z M -7.78125 6.28125 "/></g></g></g><g fill="#000000" fill-opacity="1"><g transform="translate(69.077596, 157.478984)"><g><path d="M 1.59375 -3.53125 L -7.8125 5.921875 L -8.828125 4.90625 L -7.734375 3.8125 L -7.859375 3.671875 C -8.054688 3.710938 -8.316406 3.753906 -8.640625 3.796875 C -8.972656 3.847656 -9.34375 3.816406 -9.75 3.703125 C -10.164062 3.597656 -10.59375 3.328125 -11.03125 2.890625 C -11.613281 2.304688 -11.976562 1.648438 -12.125 0.921875 C -12.269531 0.191406 -12.203125 -0.554688 -11.921875 -1.328125 C -11.648438 -2.109375 -11.15625 -2.859375 -10.4375 -3.578125 C -9.707031 -4.304688 -8.953125 -4.8125 -8.171875 -5.09375 C -7.398438 -5.382812 -6.648438 -5.457031 -5.921875 -5.3125 C -5.191406 -5.164062 -4.546875 -4.8125 -3.984375 -4.25 C -3.535156 -3.800781 -3.25 -3.367188 -3.125 -2.953125 C -3.007812 -2.546875 -2.972656 -2.175781 -3.015625 -1.84375 C -3.054688 -1.519531 -3.101562 -1.257812 -3.15625 -1.0625 L -3.078125 -0.96875 L 0.53125 -4.59375 Z M -5.421875 1.4375 C -4.648438 0.65625 -4.191406 -0.144531 -4.046875 -0.96875 C -3.898438 -1.789062 -4.144531 -2.515625 -4.78125 -3.140625 C -5.226562 -3.585938 -5.710938 -3.84375 -6.234375 -3.90625 C -6.753906 -3.96875 -7.289062 -3.875 -7.84375 -3.625 C -8.394531 -3.375 -8.914062 -3.003906 -9.40625 -2.515625 C -9.882812 -2.035156 -10.242188 -1.523438 -10.484375 -0.984375 C -10.722656 -0.453125 -10.804688 0.0703125 -10.734375 0.59375 C -10.660156 1.125 -10.398438 1.613281 -9.953125 2.0625 C -9.316406 2.695312 -8.59375 2.941406 -7.78125 2.796875 C -6.976562 2.660156 -6.191406 2.207031 -5.421875 1.4375 Z M -5.421875 1.4375 "/></g></g></g><g fill="#000000" fill-opacity="1"><g transform="translate(61.930545, 150.159241)"><g><path d="M -11.84375 5.953125 L -1.8125 -2.21875 L -0.859375 -1.046875 L -10.890625 7.125 Z M -11.84375 5.953125 "/></g></g></g><g fill="#000000" fill-opacity="1"><g transform="translate(59.484498, 147.457485)"><g><path d="M -2.734375 -4.53125 C -2.253906 -3.800781 -2.007812 -3.046875 -2 -2.265625 C -1.988281 -1.492188 -2.191406 -0.742188 -2.609375 -0.015625 C -3.035156 0.703125 -3.671875 1.335938 -4.515625 1.890625 C -5.359375 2.441406 -6.195312 2.765625 -7.03125 2.859375 C -7.863281 2.960938 -8.632812 2.851562 -9.34375 2.53125 C -10.050781 2.21875 -10.644531 1.695312 -11.125 0.96875 C -11.613281 0.226562 -11.863281 -0.53125 -11.875 -1.3125 C -11.882812 -2.09375 -11.675781 -2.84375 -11.25 -3.5625 C -10.820312 -4.28125 -10.1875 -4.914062 -9.34375 -5.46875 C -8.5 -6.019531 -7.660156 -6.347656 -6.828125 -6.453125 C -6.003906 -6.554688 -5.238281 -6.445312 -4.53125 -6.125 C -3.820312 -5.800781 -3.222656 -5.269531 -2.734375 -4.53125 Z M -3.859375 -3.796875 C -4.222656 -4.359375 -4.664062 -4.722656 -5.1875 -4.890625 C -5.707031 -5.066406 -6.253906 -5.085938 -6.828125 -4.953125 C -7.410156 -4.816406 -7.972656 -4.570312 -8.515625 -4.21875 C -9.046875 -3.863281 -9.492188 -3.445312 -9.859375 -2.96875 C -10.222656 -2.488281 -10.425781 -1.972656 -10.46875 -1.421875 C -10.519531 -0.878906 -10.363281 -0.328125 -10 0.234375 C -9.644531 0.773438 -9.203125 1.132812 -8.671875 1.3125 C -8.148438 1.488281 -7.597656 1.503906 -7.015625 1.359375 C -6.429688 1.222656 -5.875 0.976562 -5.34375 0.625 C -4.800781 0.269531 -4.347656 -0.140625 -3.984375 -0.609375 C -3.628906 -1.085938 -3.429688 -1.601562 -3.390625 -2.15625 C -3.347656 -2.707031 -3.503906 -3.253906 -3.859375 -3.796875 Z M -3.859375 -3.796875 "/></g></g></g><g fill="#000000" fill-opacity="1"><g transform="translate(54.101089, 139.134686)"><g><path d="M -0.609375 -1.21875 L -9.296875 3.09375 L -9.9375 1.8125 L -8.625 1.15625 L -8.671875 1.046875 C -9.171875 1.117188 -9.65625 1.007812 -10.125 0.71875 C -10.59375 0.4375 -10.960938 0.03125 -11.234375 -0.5 C -11.347656 -0.726562 -11.421875 -0.945312 -11.453125 -1.15625 C -11.484375 -1.363281 -11.492188 -1.5625 -11.484375 -1.75 L -10.109375 -1.859375 C -10.109375 -1.734375 -10.09375 -1.601562 -10.0625 -1.46875 C -10.03125 -1.332031 -9.972656 -1.179688 -9.890625 -1.015625 C -9.578125 -0.390625 -9.117188 0.03125 -8.515625 0.25 C -7.921875 0.476562 -7.335938 0.453125 -6.765625 0.171875 L -1.265625 -2.5625 Z M -0.609375 -1.21875 "/></g></g></g><g fill="#000000" fill-opacity="1"><g transform="translate(51.236009, 133.694264)"><g><path d="M -1.640625 -5.1875 C -1.328125 -4.300781 -1.25 -3.46875 -1.40625 -2.6875 C -1.570312 -1.914062 -1.941406 -1.234375 -2.515625 -0.640625 C -3.097656 -0.046875 -3.859375 0.414062 -4.796875 0.75 C -5.734375 1.082031 -6.617188 1.203125 -7.453125 1.109375 C -8.296875 1.023438 -9.023438 0.742188 -9.640625 0.265625 C -10.265625 -0.203125 -10.726562 -0.847656 -11.03125 -1.671875 C -11.195312 -2.148438 -11.28125 -2.648438 -11.28125 -3.171875 C -11.289062 -3.691406 -11.1875 -4.203125 -10.96875 -4.703125 C -10.75 -5.210938 -10.382812 -5.6875 -9.875 -6.125 C -9.375 -6.5625 -8.703125 -6.929688 -7.859375 -7.234375 L -7.265625 -7.453125 L -4.90625 -0.8125 C -3.945312 -1.1875 -3.296875 -1.722656 -2.953125 -2.421875 C -2.617188 -3.128906 -2.601562 -3.898438 -2.90625 -4.734375 C -3.101562 -5.285156 -3.390625 -5.71875 -3.765625 -6.03125 C -4.140625 -6.34375 -4.597656 -6.503906 -5.140625 -6.515625 L -5.25 -8 C -4.476562 -8.03125 -3.765625 -7.796875 -3.109375 -7.296875 C -2.453125 -6.804688 -1.960938 -6.101562 -1.640625 -5.1875 Z M -6.109375 -0.375 L -7.96875 -5.578125 C -8.738281 -5.304688 -9.296875 -4.851562 -9.640625 -4.21875 C -9.984375 -3.582031 -10.023438 -2.882812 -9.765625 -2.125 C -9.566406 -1.59375 -9.269531 -1.171875 -8.875 -0.859375 C -8.488281 -0.554688 -8.050781 -0.363281 -7.5625 -0.28125 C -7.082031 -0.207031 -6.597656 -0.238281 -6.109375 -0.375 Z M -6.109375 -0.375 "/></g></g></g></svg>