<svg xmlns="http://www.w3.org/2000/svg" xmlns:xlink="http://www.w3.org/1999/xlink" width="300" zoomAndPan="magnify" viewBox="0 0 224.87999 225" height="300" preserveAspectRatio="xMidYMid meet" version="1.0"><defs><g/></defs><g fill="#ffffff" fill-opacity="1"><g transform="translate(29.221952, 90.300467)"><g><path d="M 0.578125 -1.90625 L -15.09375 -6.609375 L -13.515625 -11.890625 C -13.148438 -13.117188 -12.628906 -14.054688 -11.953125 -14.703125 C -11.273438 -15.347656 -10.503906 -15.75 -9.640625 -15.90625 C -8.773438 -16.0625 -7.878906 -16.003906 -6.953125 -15.734375 C -6.035156 -15.453125 -5.253906 -15.007812 -4.609375 -14.40625 C -3.960938 -13.8125 -3.53125 -13.054688 -3.3125 -12.140625 C -3.101562 -11.222656 -3.179688 -10.15625 -3.546875 -8.9375 L -4.578125 -5.5 L 1.140625 -3.78125 Z M -6.265625 -6 L -5.265625 -9.375 C -4.878906 -10.632812 -4.921875 -11.625 -5.390625 -12.34375 C -5.867188 -13.0625 -6.578125 -13.566406 -7.515625 -13.859375 C -8.460938 -14.140625 -9.320312 -14.101562 -10.09375 -13.75 C -10.875 -13.40625 -11.457031 -12.59375 -11.84375 -11.3125 L -12.84375 -7.96875 Z M -6.265625 -6 "/></g></g></g><g fill="#ffffff" fill-opacity="1"><g transform="translate(33.17964, 77.542393)"><g><path d="M 0.6875 -1.578125 L -10.53125 -6.546875 L -9.78125 -8.21875 L -8.078125 -7.453125 L -8.03125 -7.5625 C -8.5 -8.007812 -8.785156 -8.578125 -8.890625 -9.265625 C -9.003906 -9.953125 -8.910156 -10.628906 -8.609375 -11.296875 C -8.472656 -11.617188 -8.316406 -11.878906 -8.140625 -12.078125 C -7.960938 -12.273438 -7.773438 -12.441406 -7.578125 -12.578125 L -6.359375 -11.328125 C -6.472656 -11.234375 -6.585938 -11.113281 -6.703125 -10.96875 C -6.816406 -10.820312 -6.921875 -10.640625 -7.015625 -10.421875 C -7.378906 -9.609375 -7.429688 -8.820312 -7.171875 -8.0625 C -6.910156 -7.3125 -6.40625 -6.769531 -5.65625 -6.4375 L 1.453125 -3.296875 Z M 0.6875 -1.578125 "/></g></g></g><g fill="#ffffff" fill-opacity="1"><g transform="translate(36.156083, 70.360602)"><g><path d="M 3.71875 -5.78125 C 3.113281 -4.757812 2.367188 -4.015625 1.484375 -3.546875 C 0.609375 -3.078125 -0.351562 -2.890625 -1.40625 -2.984375 C -2.457031 -3.078125 -3.519531 -3.441406 -4.59375 -4.078125 C -5.675781 -4.710938 -6.515625 -5.46875 -7.109375 -6.34375 C -7.703125 -7.226562 -8.019531 -8.164062 -8.0625 -9.15625 C -8.101562 -10.144531 -7.84375 -11.113281 -7.28125 -12.0625 C -6.957031 -12.625 -6.546875 -13.113281 -6.046875 -13.53125 C -5.546875 -13.957031 -4.957031 -14.269531 -4.28125 -14.46875 C -3.613281 -14.664062 -2.867188 -14.691406 -2.046875 -14.546875 C -1.222656 -14.410156 -0.320312 -14.050781 0.65625 -13.46875 L 1.34375 -13.0625 L -3.1875 -5.421875 C -2.03125 -4.785156 -0.972656 -4.585938 -0.015625 -4.828125 C 0.941406 -5.078125 1.703125 -5.679688 2.265625 -6.640625 C 2.640625 -7.273438 2.820312 -7.898438 2.8125 -8.515625 C 2.8125 -9.140625 2.597656 -9.722656 2.171875 -10.265625 L 3.53125 -11.5625 C 4.195312 -10.84375 4.550781 -9.96875 4.59375 -8.9375 C 4.644531 -7.90625 4.351562 -6.851562 3.71875 -5.78125 Z M -4.578125 -6.25 L -1.015625 -12.25 C -1.898438 -12.78125 -2.789062 -12.957031 -3.6875 -12.78125 C -4.59375 -12.613281 -5.304688 -12.085938 -5.828125 -11.203125 C -6.203125 -10.585938 -6.375 -9.96875 -6.34375 -9.34375 C -6.320312 -8.71875 -6.15625 -8.132812 -5.84375 -7.59375 C -5.53125 -7.0625 -5.109375 -6.613281 -4.578125 -6.25 Z M -4.578125 -6.25 "/></g></g></g><g fill="#ffffff" fill-opacity="1"><g transform="translate(42.310404, 59.924768)"><g><path d="M -0.984375 -14.0625 L -1.65625 -12.4375 C -2.09375 -12.582031 -2.578125 -12.617188 -3.109375 -12.546875 C -3.640625 -12.472656 -4.164062 -12.109375 -4.6875 -11.453125 C -5.15625 -10.867188 -5.410156 -10.273438 -5.453125 -9.671875 C -5.492188 -9.066406 -5.304688 -8.601562 -4.890625 -8.28125 C -4.523438 -7.988281 -4.128906 -7.890625 -3.703125 -7.984375 C -3.273438 -8.078125 -2.765625 -8.359375 -2.171875 -8.828125 L -0.703125 -9.96875 C 1.066406 -11.34375 2.609375 -11.507812 3.921875 -10.46875 C 4.484375 -10.03125 4.851562 -9.476562 5.03125 -8.8125 C 5.21875 -8.15625 5.210938 -7.445312 5.015625 -6.6875 C 4.816406 -5.925781 4.421875 -5.171875 3.828125 -4.421875 C 3.054688 -3.441406 2.203125 -2.800781 1.265625 -2.5 C 0.328125 -2.195312 -0.613281 -2.285156 -1.5625 -2.765625 L -0.8125 -4.4375 C 0.425781 -3.875 1.53125 -4.207031 2.5 -5.4375 C 3.039062 -6.113281 3.328125 -6.773438 3.359375 -7.421875 C 3.390625 -8.066406 3.195312 -8.550781 2.78125 -8.875 C 2.101562 -9.414062 1.28125 -9.296875 0.3125 -8.515625 L -1.328125 -7.21875 C -2.234375 -6.5 -3.070312 -6.109375 -3.84375 -6.046875 C -4.613281 -5.984375 -5.328125 -6.210938 -5.984375 -6.734375 C -6.535156 -7.160156 -6.894531 -7.691406 -7.0625 -8.328125 C -7.238281 -8.972656 -7.234375 -9.65625 -7.046875 -10.375 C -6.859375 -11.101562 -6.5 -11.800781 -5.96875 -12.46875 C -5.207031 -13.425781 -4.40625 -14.007812 -3.5625 -14.21875 C -2.71875 -14.4375 -1.859375 -14.382812 -0.984375 -14.0625 Z M -0.984375 -14.0625 "/></g></g></g><g fill="#ffffff" fill-opacity="1"><g transform="translate(48.989057, 51.403916)"><g><path d="M 0.8125 -14.078125 L -0.046875 -12.546875 C -0.472656 -12.734375 -0.953125 -12.828125 -1.484375 -12.828125 C -2.023438 -12.835938 -2.59375 -12.550781 -3.1875 -11.96875 C -3.726562 -11.4375 -4.054688 -10.875 -4.171875 -10.28125 C -4.285156 -9.695312 -4.160156 -9.210938 -3.796875 -8.828125 C -3.460938 -8.492188 -3.078125 -8.347656 -2.640625 -8.390625 C -2.210938 -8.441406 -1.675781 -8.648438 -1.03125 -9.015625 L 0.578125 -9.96875 C 2.515625 -11.101562 4.066406 -11.070312 5.234375 -9.875 C 5.734375 -9.363281 6.03125 -8.769531 6.125 -8.09375 C 6.21875 -7.414062 6.117188 -6.710938 5.828125 -5.984375 C 5.535156 -5.265625 5.046875 -4.570312 4.359375 -3.90625 C 3.460938 -3.03125 2.53125 -2.5 1.5625 -2.3125 C 0.601562 -2.132812 -0.316406 -2.34375 -1.203125 -2.9375 L -0.234375 -4.5 C 0.921875 -3.78125 2.054688 -3.96875 3.171875 -5.0625 C 3.804688 -5.664062 4.175781 -6.285156 4.28125 -6.921875 C 4.394531 -7.554688 4.265625 -8.066406 3.890625 -8.453125 C 3.285156 -9.066406 2.453125 -9.046875 1.390625 -8.390625 L -0.40625 -7.34375 C -1.382812 -6.726562 -2.257812 -6.441406 -3.03125 -6.484375 C -3.800781 -6.523438 -4.476562 -6.847656 -5.0625 -7.453125 C -5.550781 -7.953125 -5.84375 -8.523438 -5.9375 -9.171875 C -6.03125 -9.828125 -5.9375 -10.5 -5.65625 -11.1875 C -5.382812 -11.882812 -4.941406 -12.53125 -4.328125 -13.125 C -3.453125 -13.96875 -2.582031 -14.441406 -1.71875 -14.546875 C -0.851562 -14.648438 -0.0078125 -14.492188 0.8125 -14.078125 Z M 0.8125 -14.078125 "/></g></g></g><g fill="#ffffff" fill-opacity="1"><g transform="translate(56.955406, 43.777139)"><g/></g></g><g fill="#ffffff" fill-opacity="1"><g transform="translate(61.408959, 40.145109)"><g><path d="M -1.03125 -14.109375 L -0.140625 -12.796875 L -2.3125 -11.328125 L 1.703125 -5.390625 C 2.003906 -4.953125 2.289062 -4.664062 2.5625 -4.53125 C 2.84375 -4.40625 3.113281 -4.375 3.375 -4.4375 C 3.632812 -4.507812 3.875 -4.617188 4.09375 -4.765625 C 4.269531 -4.890625 4.40625 -5 4.5 -5.09375 C 4.59375 -5.1875 4.671875 -5.265625 4.734375 -5.328125 L 6 -4.125 C 5.925781 -4.007812 5.804688 -3.867188 5.640625 -3.703125 C 5.484375 -3.546875 5.253906 -3.367188 4.953125 -3.171875 C 4.515625 -2.867188 4.019531 -2.664062 3.46875 -2.5625 C 2.914062 -2.46875 2.375 -2.523438 1.84375 -2.734375 C 1.3125 -2.941406 0.84375 -3.335938 0.4375 -3.921875 L -3.859375 -10.28125 L -5.40625 -9.234375 L -6.296875 -10.546875 L -4.75 -11.59375 L -6.390625 -14.03125 L -4.84375 -15.078125 L -3.203125 -12.640625 Z M -1.03125 -14.109375 "/></g></g></g><g fill="#ffffff" fill-opacity="1"><g transform="translate(67.367878, 35.869887)"><g><path d="M 6.0625 -2.859375 C 5.082031 -2.347656 4.101562 -2.132812 3.125 -2.21875 C 2.144531 -2.3125 1.226562 -2.671875 0.375 -3.296875 C -0.46875 -3.921875 -1.175781 -4.796875 -1.75 -5.921875 C -2.34375 -7.054688 -2.648438 -8.15625 -2.671875 -9.21875 C -2.703125 -10.28125 -2.46875 -11.234375 -1.96875 -12.078125 C -1.46875 -12.921875 -0.726562 -13.597656 0.25 -14.109375 C 1.238281 -14.617188 2.21875 -14.832031 3.1875 -14.75 C 4.164062 -14.664062 5.082031 -14.304688 5.9375 -13.671875 C 6.789062 -13.035156 7.515625 -12.148438 8.109375 -11.015625 C 8.679688 -9.890625 8.976562 -8.800781 9 -7.75 C 9.019531 -6.695312 8.78125 -5.742188 8.28125 -4.890625 C 7.789062 -4.046875 7.050781 -3.367188 6.0625 -2.859375 Z M 5.296875 -4.359375 C 6.046875 -4.742188 6.5625 -5.25 6.84375 -5.875 C 7.125 -6.507812 7.21875 -7.195312 7.125 -7.9375 C 7.039062 -8.6875 6.8125 -9.425781 6.4375 -10.15625 C 6.0625 -10.882812 5.59375 -11.503906 5.03125 -12.015625 C 4.46875 -12.523438 3.847656 -12.847656 3.171875 -12.984375 C 2.492188 -13.117188 1.78125 -12.992188 1.03125 -12.609375 C 0.289062 -12.222656 -0.21875 -11.710938 -0.5 -11.078125 C -0.789062 -10.441406 -0.890625 -9.75 -0.796875 -9 C -0.703125 -8.25 -0.46875 -7.507812 -0.09375 -6.78125 C 0.28125 -6.050781 0.742188 -5.429688 1.296875 -4.921875 C 1.859375 -4.421875 2.476562 -4.101562 3.15625 -3.96875 C 3.84375 -3.84375 4.554688 -3.972656 5.296875 -4.359375 Z M 5.296875 -4.359375 "/></g></g></g><g fill="#ffffff" fill-opacity="1"><g transform="translate(78.647111, 30.206779)"><g/></g></g><g fill="#ffffff" fill-opacity="1"><g transform="translate(83.819843, 28.024047)"><g><path d="M 7.484375 -11.953125 L 5.984375 -11.03125 C 5.703125 -11.394531 5.328125 -11.707031 4.859375 -11.96875 C 4.390625 -12.226562 3.753906 -12.25 2.953125 -12.03125 C 2.222656 -11.832031 1.664062 -11.5 1.28125 -11.03125 C 0.90625 -10.5625 0.785156 -10.070312 0.921875 -9.5625 C 1.046875 -9.113281 1.304688 -8.804688 1.703125 -8.640625 C 2.109375 -8.472656 2.6875 -8.394531 3.4375 -8.40625 L 5.3125 -8.453125 C 7.539062 -8.523438 8.878906 -7.753906 9.328125 -6.140625 C 9.523438 -5.453125 9.5 -4.785156 9.25 -4.140625 C 9.007812 -3.503906 8.585938 -2.941406 7.984375 -2.453125 C 7.378906 -1.960938 6.613281 -1.585938 5.6875 -1.328125 C 4.488281 -0.992188 3.421875 -0.976562 2.484375 -1.28125 C 1.546875 -1.582031 0.835938 -2.203125 0.359375 -3.140625 L 1.953125 -4.0625 C 2.628906 -2.875 3.71875 -2.492188 5.21875 -2.921875 C 6.0625 -3.148438 6.6875 -3.515625 7.09375 -4.015625 C 7.5 -4.515625 7.628906 -5.019531 7.484375 -5.53125 C 7.253906 -6.363281 6.515625 -6.75 5.265625 -6.6875 L 3.171875 -6.625 C 2.023438 -6.570312 1.117188 -6.742188 0.453125 -7.140625 C -0.203125 -7.546875 -0.644531 -8.15625 -0.875 -8.96875 C -1.0625 -9.644531 -1.035156 -10.289062 -0.796875 -10.90625 C -0.554688 -11.519531 -0.148438 -12.0625 0.421875 -12.53125 C 0.992188 -13.007812 1.691406 -13.363281 2.515625 -13.59375 C 3.691406 -13.914062 4.6875 -13.914062 5.5 -13.59375 C 6.3125 -13.269531 6.972656 -12.722656 7.484375 -11.953125 Z M 7.484375 -11.953125 "/></g></g></g><g fill="#ffffff" fill-opacity="1"><g transform="translate(94.175919, 25.033373)"><g><path d="M 6.828125 -0.671875 C 5.660156 -0.515625 4.617188 -0.632812 3.703125 -1.03125 C 2.796875 -1.4375 2.046875 -2.078125 1.453125 -2.953125 C 0.867188 -3.835938 0.492188 -4.894531 0.328125 -6.125 C 0.160156 -7.375 0.238281 -8.503906 0.5625 -9.515625 C 0.894531 -10.535156 1.429688 -11.367188 2.171875 -12.015625 C 2.921875 -12.660156 3.84375 -13.0625 4.9375 -13.21875 C 5.582031 -13.300781 6.222656 -13.273438 6.859375 -13.140625 C 7.492188 -13.015625 8.097656 -12.75 8.671875 -12.34375 C 9.253906 -11.945312 9.742188 -11.378906 10.140625 -10.640625 C 10.546875 -9.910156 10.828125 -8.976562 10.984375 -7.84375 L 11.09375 -7.0625 L 2.28125 -5.859375 C 2.5 -4.566406 3 -3.617188 3.78125 -3.015625 C 4.570312 -2.421875 5.515625 -2.195312 6.609375 -2.34375 C 7.335938 -2.445312 7.941406 -2.691406 8.421875 -3.078125 C 8.910156 -3.472656 9.234375 -4.003906 9.390625 -4.671875 L 11.25 -4.390625 C 11.09375 -3.441406 10.625 -2.625 9.84375 -1.9375 C 9.070312 -1.257812 8.066406 -0.835938 6.828125 -0.671875 Z M 2.046875 -7.46875 L 8.96875 -8.421875 C 8.832031 -9.441406 8.414062 -10.25 7.71875 -10.84375 C 7.019531 -11.445312 6.164062 -11.679688 5.15625 -11.546875 C 4.445312 -11.441406 3.851562 -11.1875 3.375 -10.78125 C 2.90625 -10.375 2.554688 -9.878906 2.328125 -9.296875 C 2.097656 -8.710938 2.003906 -8.101562 2.046875 -7.46875 Z M 2.046875 -7.46875 "/></g></g></g><g fill="#ffffff" fill-opacity="1"><g transform="translate(106.119834, 23.329695)"><g><path d="M 3.671875 -7.34375 L 3.609375 0.03125 L 1.71875 0.015625 L 1.8125 -12.25 L 3.640625 -12.234375 L 3.625 -10.3125 L 3.78125 -10.3125 C 4.082031 -10.9375 4.523438 -11.4375 5.109375 -11.8125 C 5.691406 -12.1875 6.445312 -12.367188 7.375 -12.359375 C 8.613281 -12.347656 9.613281 -11.957031 10.375 -11.1875 C 11.132812 -10.425781 11.507812 -9.265625 11.5 -7.703125 L 11.4375 0.09375 L 9.546875 0.078125 L 9.609375 -7.59375 C 9.617188 -8.550781 9.375 -9.300781 8.875 -9.84375 C 8.375 -10.394531 7.6875 -10.675781 6.8125 -10.6875 C 5.914062 -10.6875 5.171875 -10.394531 4.578125 -9.8125 C 3.984375 -9.238281 3.679688 -8.414062 3.671875 -7.34375 Z M 3.671875 -7.34375 "/></g></g></g><g fill="#ffffff" fill-opacity="1"><g transform="translate(118.218786, 23.315847)"><g><path d="M 6.25 1.234375 C 5.238281 1.078125 4.382812 0.679688 3.6875 0.046875 C 2.988281 -0.585938 2.492188 -1.410156 2.203125 -2.421875 C 1.921875 -3.429688 1.878906 -4.570312 2.078125 -5.84375 C 2.285156 -7.125 2.675781 -8.195312 3.25 -9.0625 C 3.832031 -9.9375 4.550781 -10.5625 5.40625 -10.9375 C 6.269531 -11.320312 7.210938 -11.4375 8.234375 -11.28125 C 9.015625 -11.15625 9.617188 -10.925781 10.046875 -10.59375 C 10.472656 -10.269531 10.78125 -9.925781 10.96875 -9.5625 C 11.15625 -9.195312 11.300781 -8.890625 11.40625 -8.640625 L 11.5625 -8.625 L 12.5 -14.59375 L 14.375 -14.296875 L 11.84375 1.859375 L 10.03125 1.578125 L 10.328125 -0.296875 L 10.109375 -0.328125 C 9.921875 -0.128906 9.675781 0.113281 9.375 0.40625 C 9.070312 0.707031 8.664062 0.953125 8.15625 1.140625 C 7.65625 1.328125 7.019531 1.359375 6.25 1.234375 Z M 6.75 -0.390625 C 7.875 -0.222656 8.800781 -0.519531 9.53125 -1.28125 C 10.257812 -2.050781 10.734375 -3.117188 10.953125 -4.484375 C 11.160156 -5.847656 11.035156 -6.992188 10.578125 -7.921875 C 10.128906 -8.847656 9.335938 -9.398438 8.203125 -9.578125 C 7.410156 -9.703125 6.71875 -9.601562 6.125 -9.28125 C 5.539062 -8.96875 5.066406 -8.484375 4.703125 -7.828125 C 4.335938 -7.179688 4.085938 -6.429688 3.953125 -5.578125 C 3.816406 -4.722656 3.828125 -3.921875 3.984375 -3.171875 C 4.140625 -2.429688 4.441406 -1.8125 4.890625 -1.3125 C 5.347656 -0.820312 5.96875 -0.515625 6.75 -0.390625 Z M 6.75 -0.390625 "/></g></g></g><g fill="#ffffff" fill-opacity="1"><g transform="translate(131.174606, 25.518207)"><g/></g></g><g fill="#ffffff" fill-opacity="1"><g transform="translate(136.734112, 26.973048)"><g><path d="M 10.796875 -9.15625 L 10.25 -7.65625 L 7.78125 -8.546875 L 5.359375 -1.8125 C 5.179688 -1.3125 5.117188 -0.910156 5.171875 -0.609375 C 5.234375 -0.304688 5.367188 -0.0703125 5.578125 0.09375 C 5.785156 0.269531 6.015625 0.398438 6.265625 0.484375 C 6.460938 0.554688 6.628906 0.601562 6.765625 0.625 C 6.898438 0.65625 7.007812 0.679688 7.09375 0.703125 L 6.859375 2.40625 C 6.734375 2.414062 6.554688 2.398438 6.328125 2.359375 C 6.097656 2.328125 5.816406 2.25 5.484375 2.125 C 4.984375 1.945312 4.53125 1.664062 4.125 1.28125 C 3.726562 0.894531 3.453125 0.425781 3.296875 -0.125 C 3.140625 -0.675781 3.179688 -1.285156 3.421875 -1.953125 L 6.015625 -9.171875 L 4.265625 -9.8125 L 4.8125 -11.3125 L 6.5625 -10.671875 L 7.546875 -13.4375 L 9.3125 -12.8125 L 8.328125 -10.046875 Z M 10.796875 -9.15625 "/></g></g></g><g fill="#ffffff" fill-opacity="1"><g transform="translate(143.704421, 29.269307)"><g><path d="M 6.53125 -4.984375 L 3.234375 1.609375 L 1.53125 0.765625 L 8.828125 -13.875 L 10.53125 -13.03125 L 7.84375 -7.640625 L 7.984375 -7.578125 C 8.523438 -8.015625 9.140625 -8.273438 9.828125 -8.359375 C 10.515625 -8.441406 11.285156 -8.265625 12.140625 -7.828125 C 13.273438 -7.265625 14.015625 -6.472656 14.359375 -5.453125 C 14.703125 -4.441406 14.523438 -3.234375 13.828125 -1.828125 L 10.34375 5.15625 L 8.65625 4.3125 L 12.078125 -2.546875 C 12.503906 -3.421875 12.613281 -4.207031 12.40625 -4.90625 C 12.195312 -5.613281 11.691406 -6.164062 10.890625 -6.5625 C 10.054688 -6.976562 9.238281 -7.0625 8.4375 -6.8125 C 7.632812 -6.5625 7 -5.953125 6.53125 -4.984375 Z M 6.53125 -4.984375 "/></g></g></g><g fill="#ffffff" fill-opacity="1"><g transform="translate(154.700245, 34.66934)"><g><path d="M 5.5 4.109375 C 4.53125 3.441406 3.84375 2.648438 3.4375 1.734375 C 3.03125 0.816406 2.910156 -0.160156 3.078125 -1.203125 C 3.242188 -2.242188 3.679688 -3.273438 4.390625 -4.296875 C 5.109375 -5.335938 5.925781 -6.117188 6.84375 -6.640625 C 7.769531 -7.171875 8.726562 -7.421875 9.71875 -7.390625 C 10.707031 -7.359375 11.65625 -7.03125 12.5625 -6.40625 C 13.09375 -6.03125 13.550781 -5.582031 13.9375 -5.0625 C 14.332031 -4.539062 14.601562 -3.9375 14.75 -3.25 C 14.894531 -2.570312 14.867188 -1.828125 14.671875 -1.015625 C 14.472656 -0.203125 14.050781 0.675781 13.40625 1.625 L 12.953125 2.28125 L 5.640625 -2.78125 C 4.929688 -1.6875 4.660156 -0.65625 4.828125 0.3125 C 5.003906 1.289062 5.546875 2.09375 6.453125 2.71875 C 7.054688 3.144531 7.671875 3.378906 8.296875 3.421875 C 8.921875 3.460938 9.515625 3.285156 10.078125 2.890625 L 11.28125 4.34375 C 10.519531 4.957031 9.617188 5.25 8.578125 5.21875 C 7.546875 5.1875 6.519531 4.816406 5.5 4.109375 Z M 6.5625 -4.125 L 12.3125 -0.140625 C 12.894531 -0.984375 13.128906 -1.863281 13.015625 -2.78125 C 12.898438 -3.695312 12.425781 -4.445312 11.59375 -5.03125 C 11 -5.4375 10.390625 -5.648438 9.765625 -5.671875 C 9.140625 -5.691406 8.550781 -5.5625 8 -5.28125 C 7.445312 -5.007812 6.96875 -4.625 6.5625 -4.125 Z M 6.5625 -4.125 "/></g></g></g><g fill="#ffffff" fill-opacity="1"><g transform="translate(164.740163, 41.802091)"><g/></g></g><g fill="#ffffff" fill-opacity="1"><g transform="translate(169.097132, 45.266069)"><g><path d="M 4.5 5.171875 C 3.695312 4.316406 3.191406 3.398438 2.984375 2.421875 C 2.785156 1.441406 2.875 0.460938 3.25 -0.515625 C 3.632812 -1.503906 4.285156 -2.425781 5.203125 -3.28125 C 6.117188 -4.144531 7.082031 -4.734375 8.09375 -5.046875 C 9.101562 -5.367188 10.085938 -5.414062 11.046875 -5.1875 C 12.003906 -4.957031 12.863281 -4.4375 13.625 -3.625 C 14.0625 -3.15625 14.414062 -2.617188 14.6875 -2.015625 C 14.957031 -1.421875 15.09375 -0.773438 15.09375 -0.078125 C 15.101562 0.617188 14.921875 1.34375 14.546875 2.09375 C 14.179688 2.851562 13.582031 3.625 12.75 4.40625 L 12.171875 4.953125 L 6.09375 -1.546875 C 5.164062 -0.617188 4.6875 0.335938 4.65625 1.328125 C 4.625 2.316406 4.984375 3.210938 5.734375 4.015625 C 6.242188 4.554688 6.796875 4.910156 7.390625 5.078125 C 7.992188 5.253906 8.613281 5.210938 9.25 4.953125 L 10.109375 6.640625 C 9.242188 7.054688 8.304688 7.144531 7.296875 6.90625 C 6.285156 6.664062 5.351562 6.085938 4.5 5.171875 Z M 7.28125 -2.65625 L 12.0625 2.4375 C 12.8125 1.738281 13.226562 0.929688 13.3125 0.015625 C 13.394531 -0.898438 13.085938 -1.726562 12.390625 -2.46875 C 11.898438 -3 11.351562 -3.335938 10.75 -3.484375 C 10.144531 -3.628906 9.535156 -3.625 8.921875 -3.46875 C 8.316406 -3.320312 7.769531 -3.050781 7.28125 -2.65625 Z M 7.28125 -2.65625 "/></g></g></g><g fill="#ffffff" fill-opacity="1"><g transform="translate(177.493695, 53.649512)"><g><path d="M 0.9375 1.4375 L 11.234375 -5.234375 L 12.21875 -3.6875 L 10.609375 -2.640625 L 10.703125 -2.515625 C 11.378906 -2.648438 12.023438 -2.578125 12.640625 -2.296875 C 13.265625 -2.023438 13.796875 -1.550781 14.234375 -0.875 C 14.660156 -0.195312 14.867188 0.460938 14.859375 1.109375 C 14.847656 1.765625 14.65625 2.394531 14.28125 3 L 14.34375 3.109375 C 15.039062 3.023438 15.71875 3.144531 16.375 3.46875 C 17.03125 3.800781 17.597656 4.332031 18.078125 5.0625 C 18.679688 5.988281 18.882812 6.929688 18.6875 7.890625 C 18.488281 8.847656 17.785156 9.722656 16.578125 10.515625 L 9.6875 14.96875 L 8.671875 13.375 L 15.5625 8.921875 C 16.320312 8.421875 16.726562 7.851562 16.78125 7.21875 C 16.84375 6.59375 16.691406 6.003906 16.328125 5.453125 C 15.859375 4.722656 15.273438 4.300781 14.578125 4.1875 C 13.890625 4.082031 13.210938 4.242188 12.546875 4.671875 L 5.84375 9.015625 L 4.796875 7.390625 L 11.859375 2.8125 C 12.441406 2.4375 12.785156 1.941406 12.890625 1.328125 C 13.003906 0.710938 12.867188 0.109375 12.484375 -0.484375 C 12.222656 -0.890625 11.867188 -1.195312 11.421875 -1.40625 C 10.972656 -1.613281 10.484375 -1.703125 9.953125 -1.671875 C 9.421875 -1.640625 8.90625 -1.460938 8.40625 -1.140625 L 1.96875 3.03125 Z M 0.9375 1.4375 "/></g></g></g><g fill="#ffffff" fill-opacity="1"><g transform="translate(187.271304, 69.082279)"><g><path d="M 1.8125 5.015625 C 1.507812 4.304688 1.367188 3.601562 1.390625 2.90625 C 1.410156 2.207031 1.609375 1.578125 1.984375 1.015625 C 2.367188 0.453125 2.925781 0.015625 3.65625 -0.296875 C 4.300781 -0.566406 4.878906 -0.660156 5.390625 -0.578125 C 5.910156 -0.492188 6.375 -0.285156 6.78125 0.046875 C 7.195312 0.378906 7.570312 0.773438 7.90625 1.234375 C 8.238281 1.703125 8.546875 2.1875 8.828125 2.6875 C 9.210938 3.34375 9.515625 3.875 9.734375 4.28125 C 9.960938 4.6875 10.171875 4.960938 10.359375 5.109375 C 10.554688 5.253906 10.796875 5.269531 11.078125 5.15625 L 11.125 5.125 C 11.851562 4.820312 12.335938 4.390625 12.578125 3.828125 C 12.828125 3.265625 12.78125 2.582031 12.4375 1.78125 C 12.09375 0.957031 11.632812 0.382812 11.0625 0.0625 C 10.5 -0.25 9.972656 -0.414062 9.484375 -0.4375 L 9.375 -2.328125 C 10.1875 -2.316406 10.890625 -2.148438 11.484375 -1.828125 C 12.078125 -1.503906 12.570312 -1.078125 12.96875 -0.546875 C 13.375 -0.0234375 13.695312 0.519531 13.9375 1.09375 C 14.082031 1.457031 14.210938 1.890625 14.328125 2.390625 C 14.453125 2.898438 14.472656 3.429688 14.390625 3.984375 C 14.316406 4.546875 14.070312 5.085938 13.65625 5.609375 C 13.25 6.128906 12.59375 6.578125 11.6875 6.953125 L 4.25 10.09375 L 3.515625 8.34375 L 5.046875 7.703125 L 5.015625 7.625 C 4.722656 7.613281 4.375 7.523438 3.96875 7.359375 C 3.570312 7.203125 3.179688 6.9375 2.796875 6.5625 C 2.410156 6.195312 2.082031 5.679688 1.8125 5.015625 Z M 3.484375 4.640625 C 3.773438 5.316406 4.15625 5.832031 4.625 6.1875 C 5.09375 6.550781 5.585938 6.765625 6.109375 6.828125 C 6.640625 6.890625 7.140625 6.820312 7.609375 6.625 L 9.1875 5.953125 C 9.082031 5.921875 8.9375 5.796875 8.75 5.578125 C 8.570312 5.359375 8.390625 5.097656 8.203125 4.796875 C 8.023438 4.492188 7.851562 4.195312 7.6875 3.90625 C 7.519531 3.625 7.390625 3.398438 7.296875 3.234375 C 7.035156 2.804688 6.757812 2.425781 6.46875 2.09375 C 6.175781 1.757812 5.847656 1.523438 5.484375 1.390625 C 5.128906 1.265625 4.734375 1.296875 4.296875 1.484375 C 3.691406 1.734375 3.332031 2.144531 3.21875 2.71875 C 3.101562 3.300781 3.191406 3.941406 3.484375 4.640625 Z M 3.484375 4.640625 "/></g></g></g><g fill="#ffffff" fill-opacity="1"><g transform="translate(191.783903, 80.152575)"><g><path d="M 0.515625 1.640625 L 12.234375 -2 L 12.78125 -0.1875 L 1.0625 3.453125 Z M 14.46875 -1.6875 C 14.351562 -2.039062 14.375 -2.378906 14.53125 -2.703125 C 14.695312 -3.023438 14.941406 -3.238281 15.265625 -3.34375 C 15.609375 -3.445312 15.9375 -3.410156 16.25 -3.234375 C 16.5625 -3.054688 16.773438 -2.789062 16.890625 -2.4375 C 16.992188 -2.082031 16.96875 -1.742188 16.8125 -1.421875 C 16.65625 -1.097656 16.40625 -0.882812 16.0625 -0.78125 C 15.738281 -0.675781 15.414062 -0.710938 15.09375 -0.890625 C 14.78125 -1.066406 14.570312 -1.332031 14.46875 -1.6875 Z M 14.46875 -1.6875 "/></g></g></g><g fill="#ffffff" fill-opacity="1"><g transform="translate(193.250498, 84.834513)"><g><path d="M 16.75 -0.4375 L 0.875 3.5 L 0.40625 1.671875 L 16.28125 -2.265625 Z M 16.75 -0.4375 "/></g></g></g><g fill="#ffffff" fill-opacity="1"><g transform="translate(195.651255, 134.695027)"><g><path d="M -0.578125 1.90625 L 15.09375 6.609375 L 13.515625 11.890625 C 13.148438 13.117188 12.628906 14.054688 11.953125 14.703125 C 11.273438 15.347656 10.503906 15.75 9.640625 15.90625 C 8.773438 16.0625 7.878906 16.003906 6.953125 15.734375 C 6.035156 15.453125 5.253906 15.007812 4.609375 14.40625 C 3.960938 13.8125 3.53125 13.054688 3.3125 12.140625 C 3.101562 11.222656 3.179688 10.15625 3.546875 8.9375 L 4.578125 5.5 L -1.140625 3.78125 Z M 6.265625 6 L 5.265625 9.375 C 4.878906 10.632812 4.921875 11.625 5.390625 12.34375 C 5.867188 13.0625 6.578125 13.566406 7.515625 13.859375 C 8.460938 14.140625 9.320312 14.101562 10.09375 13.75 C 10.875 13.40625 11.457031 12.59375 11.84375 11.3125 L 12.84375 7.96875 Z M 6.265625 6 "/></g></g></g><g fill="#ffffff" fill-opacity="1"><g transform="translate(191.693565, 147.453101)"><g><path d="M -0.6875 1.578125 L 10.53125 6.546875 L 9.78125 8.21875 L 8.078125 7.453125 L 8.03125 7.5625 C 8.5 8.007812 8.785156 8.578125 8.890625 9.265625 C 9.003906 9.953125 8.910156 10.628906 8.609375 11.296875 C 8.472656 11.617188 8.316406 11.878906 8.140625 12.078125 C 7.960938 12.273438 7.773438 12.441406 7.578125 12.578125 L 6.359375 11.328125 C 6.472656 11.234375 6.585938 11.113281 6.703125 10.96875 C 6.816406 10.820312 6.921875 10.640625 7.015625 10.421875 C 7.378906 9.609375 7.429688 8.820312 7.171875 8.0625 C 6.910156 7.3125 6.40625 6.769531 5.65625 6.4375 L -1.453125 3.296875 Z M -0.6875 1.578125 "/></g></g></g><g fill="#ffffff" fill-opacity="1"><g transform="translate(188.717129, 154.634894)"><g><path d="M -3.71875 5.78125 C -3.113281 4.757812 -2.367188 4.015625 -1.484375 3.546875 C -0.609375 3.078125 0.351562 2.890625 1.40625 2.984375 C 2.457031 3.078125 3.519531 3.441406 4.59375 4.078125 C 5.675781 4.710938 6.515625 5.46875 7.109375 6.34375 C 7.703125 7.226562 8.019531 8.164062 8.0625 9.15625 C 8.101562 10.144531 7.84375 11.113281 7.28125 12.0625 C 6.957031 12.625 6.546875 13.113281 6.046875 13.53125 C 5.546875 13.957031 4.957031 14.269531 4.28125 14.46875 C 3.613281 14.664062 2.867188 14.691406 2.046875 14.546875 C 1.222656 14.410156 0.320312 14.050781 -0.65625 13.46875 L -1.34375 13.0625 L 3.1875 5.421875 C 2.03125 4.785156 0.972656 4.585938 0.015625 4.828125 C -0.941406 5.078125 -1.703125 5.679688 -2.265625 6.640625 C -2.640625 7.273438 -2.820312 7.898438 -2.8125 8.515625 C -2.8125 9.140625 -2.597656 9.722656 -2.171875 10.265625 L -3.53125 11.5625 C -4.195312 10.84375 -4.550781 9.96875 -4.59375 8.9375 C -4.644531 7.90625 -4.351562 6.851562 -3.71875 5.78125 Z M 4.578125 6.25 L 1.015625 12.25 C 1.898438 12.78125 2.789062 12.957031 3.6875 12.78125 C 4.59375 12.613281 5.304688 12.085938 5.828125 11.203125 C 6.203125 10.585938 6.375 9.96875 6.34375 9.34375 C 6.320312 8.71875 6.15625 8.132812 5.84375 7.59375 C 5.53125 7.0625 5.109375 6.613281 4.578125 6.25 Z M 4.578125 6.25 "/></g></g></g><g fill="#ffffff" fill-opacity="1"><g transform="translate(182.562813, 165.07073)"><g><path d="M 0.984375 14.0625 L 1.65625 12.4375 C 2.09375 12.582031 2.578125 12.617188 3.109375 12.546875 C 3.640625 12.472656 4.164062 12.109375 4.6875 11.453125 C 5.15625 10.867188 5.410156 10.273438 5.453125 9.671875 C 5.492188 9.066406 5.304688 8.601562 4.890625 8.28125 C 4.523438 7.988281 4.128906 7.890625 3.703125 7.984375 C 3.273438 8.078125 2.765625 8.359375 2.171875 8.828125 L 0.703125 9.96875 C -1.066406 11.34375 -2.609375 11.507812 -3.921875 10.46875 C -4.484375 10.03125 -4.851562 9.476562 -5.03125 8.8125 C -5.21875 8.15625 -5.210938 7.445312 -5.015625 6.6875 C -4.816406 5.925781 -4.421875 5.171875 -3.828125 4.421875 C -3.054688 3.441406 -2.203125 2.800781 -1.265625 2.5 C -0.328125 2.195312 0.613281 2.285156 1.5625 2.765625 L 0.8125 4.4375 C -0.425781 3.875 -1.53125 4.207031 -2.5 5.4375 C -3.039062 6.113281 -3.328125 6.773438 -3.359375 7.421875 C -3.390625 8.066406 -3.195312 8.550781 -2.78125 8.875 C -2.101562 9.414062 -1.28125 9.296875 -0.3125 8.515625 L 1.328125 7.21875 C 2.234375 6.5 3.070312 6.109375 3.84375 6.046875 C 4.613281 5.984375 5.328125 6.210938 5.984375 6.734375 C 6.535156 7.160156 6.894531 7.691406 7.0625 8.328125 C 7.238281 8.972656 7.234375 9.65625 7.046875 10.375 C 6.859375 11.101562 6.5 11.800781 5.96875 12.46875 C 5.207031 13.425781 4.40625 14.007812 3.5625 14.21875 C 2.71875 14.4375 1.859375 14.382812 0.984375 14.0625 Z M 0.984375 14.0625 "/></g></g></g><g fill="#ffffff" fill-opacity="1"><g transform="translate(175.884164, 173.591571)"><g><path d="M -0.8125 14.078125 L 0.046875 12.546875 C 0.472656 12.734375 0.953125 12.828125 1.484375 12.828125 C 2.023438 12.835938 2.59375 12.550781 3.1875 11.96875 C 3.726562 11.4375 4.054688 10.875 4.171875 10.28125 C 4.285156 9.695312 4.160156 9.210938 3.796875 8.828125 C 3.460938 8.492188 3.078125 8.347656 2.640625 8.390625 C 2.210938 8.441406 1.675781 8.648438 1.03125 9.015625 L -0.578125 9.96875 C -2.515625 11.101562 -4.066406 11.070312 -5.234375 9.875 C -5.734375 9.363281 -6.03125 8.769531 -6.125 8.09375 C -6.21875 7.414062 -6.117188 6.710938 -5.828125 5.984375 C -5.535156 5.265625 -5.046875 4.570312 -4.359375 3.90625 C -3.460938 3.03125 -2.53125 2.5 -1.5625 2.3125 C -0.601562 2.132812 0.316406 2.34375 1.203125 2.9375 L 0.234375 4.5 C -0.921875 3.78125 -2.054688 3.96875 -3.171875 5.0625 C -3.804688 5.664062 -4.175781 6.285156 -4.28125 6.921875 C -4.394531 7.554688 -4.265625 8.066406 -3.890625 8.453125 C -3.285156 9.066406 -2.453125 9.046875 -1.390625 8.390625 L 0.40625 7.34375 C 1.382812 6.726562 2.257812 6.441406 3.03125 6.484375 C 3.800781 6.523438 4.476562 6.847656 5.0625 7.453125 C 5.550781 7.953125 5.84375 8.523438 5.9375 9.171875 C 6.03125 9.828125 5.9375 10.5 5.65625 11.1875 C 5.382812 11.882812 4.941406 12.53125 4.328125 13.125 C 3.453125 13.96875 2.582031 14.441406 1.71875 14.546875 C 0.851562 14.648438 0.0078125 14.492188 -0.8125 14.078125 Z M -0.8125 14.078125 "/></g></g></g><g fill="#ffffff" fill-opacity="1"><g transform="translate(167.917805, 181.218351)"><g/></g></g><g fill="#ffffff" fill-opacity="1"><g transform="translate(163.46426, 184.850375)"><g><path d="M 1.03125 14.109375 L 0.140625 12.796875 L 2.3125 11.328125 L -1.703125 5.390625 C -2.003906 4.953125 -2.289062 4.664062 -2.5625 4.53125 C -2.84375 4.40625 -3.113281 4.375 -3.375 4.4375 C -3.632812 4.507812 -3.875 4.617188 -4.09375 4.765625 C -4.269531 4.890625 -4.40625 5 -4.5 5.09375 C -4.59375 5.1875 -4.671875 5.265625 -4.734375 5.328125 L -6 4.125 C -5.925781 4.007812 -5.804688 3.867188 -5.640625 3.703125 C -5.484375 3.546875 -5.253906 3.367188 -4.953125 3.171875 C -4.515625 2.867188 -4.019531 2.664062 -3.46875 2.5625 C -2.914062 2.46875 -2.375 2.523438 -1.84375 2.734375 C -1.3125 2.941406 -0.84375 3.335938 -0.4375 3.921875 L 3.859375 10.28125 L 5.40625 9.234375 L 6.296875 10.546875 L 4.75 11.59375 L 6.390625 14.03125 L 4.84375 15.078125 L 3.203125 12.640625 Z M 1.03125 14.109375 "/></g></g></g><g fill="#ffffff" fill-opacity="1"><g transform="translate(157.505333, 189.125601)"><g><path d="M -6.0625 2.859375 C -5.082031 2.347656 -4.101562 2.132812 -3.125 2.21875 C -2.144531 2.3125 -1.226562 2.671875 -0.375 3.296875 C 0.46875 3.921875 1.175781 4.796875 1.75 5.921875 C 2.34375 7.054688 2.648438 8.15625 2.671875 9.21875 C 2.703125 10.28125 2.46875 11.234375 1.96875 12.078125 C 1.46875 12.921875 0.726562 13.597656 -0.25 14.109375 C -1.238281 14.617188 -2.21875 14.832031 -3.1875 14.75 C -4.164062 14.664062 -5.082031 14.304688 -5.9375 13.671875 C -6.789062 13.035156 -7.515625 12.148438 -8.109375 11.015625 C -8.679688 9.890625 -8.976562 8.800781 -9 7.75 C -9.019531 6.695312 -8.78125 5.742188 -8.28125 4.890625 C -7.789062 4.046875 -7.050781 3.367188 -6.0625 2.859375 Z M -5.296875 4.359375 C -6.046875 4.742188 -6.5625 5.25 -6.84375 5.875 C -7.125 6.507812 -7.21875 7.195312 -7.125 7.9375 C -7.039062 8.6875 -6.8125 9.425781 -6.4375 10.15625 C -6.0625 10.882812 -5.59375 11.503906 -5.03125 12.015625 C -4.46875 12.523438 -3.847656 12.847656 -3.171875 12.984375 C -2.492188 13.117188 -1.78125 12.992188 -1.03125 12.609375 C -0.289062 12.222656 0.21875 11.710938 0.5 11.078125 C 0.789062 10.441406 0.890625 9.75 0.796875 9 C 0.703125 8.25 0.46875 7.507812 0.09375 6.78125 C -0.28125 6.050781 -0.742188 5.429688 -1.296875 4.921875 C -1.859375 4.421875 -2.476562 4.101562 -3.15625 3.96875 C -3.84375 3.84375 -4.554688 3.972656 -5.296875 4.359375 Z M -5.296875 4.359375 "/></g></g></g><g fill="#ffffff" fill-opacity="1"><g transform="translate(146.22612, 194.788708)"><g/></g></g><g fill="#ffffff" fill-opacity="1"><g transform="translate(141.05338, 196.971444)"><g><path d="M -7.484375 11.953125 L -5.984375 11.03125 C -5.703125 11.394531 -5.328125 11.707031 -4.859375 11.96875 C -4.390625 12.226562 -3.753906 12.25 -2.953125 12.03125 C -2.222656 11.832031 -1.664062 11.5 -1.28125 11.03125 C -0.90625 10.5625 -0.785156 10.070312 -0.921875 9.5625 C -1.046875 9.113281 -1.304688 8.804688 -1.703125 8.640625 C -2.109375 8.472656 -2.6875 8.394531 -3.4375 8.40625 L -5.3125 8.453125 C -7.539062 8.523438 -8.878906 7.753906 -9.328125 6.140625 C -9.523438 5.453125 -9.5 4.785156 -9.25 4.140625 C -9.007812 3.503906 -8.585938 2.941406 -7.984375 2.453125 C -7.378906 1.960938 -6.613281 1.585938 -5.6875 1.328125 C -4.488281 0.992188 -3.421875 0.976562 -2.484375 1.28125 C -1.546875 1.582031 -0.835938 2.203125 -0.359375 3.140625 L -1.953125 4.0625 C -2.628906 2.875 -3.71875 2.492188 -5.21875 2.921875 C -6.0625 3.148438 -6.6875 3.515625 -7.09375 4.015625 C -7.5 4.515625 -7.628906 5.019531 -7.484375 5.53125 C -7.253906 6.363281 -6.515625 6.75 -5.265625 6.6875 L -3.171875 6.625 C -2.023438 6.570312 -1.117188 6.742188 -0.453125 7.140625 C 0.203125 7.546875 0.644531 8.15625 0.875 8.96875 C 1.0625 9.644531 1.035156 10.289062 0.796875 10.90625 C 0.554688 11.519531 0.148438 12.0625 -0.421875 12.53125 C -0.992188 13.007812 -1.691406 13.363281 -2.515625 13.59375 C -3.691406 13.914062 -4.6875 13.914062 -5.5 13.59375 C -6.3125 13.269531 -6.972656 12.722656 -7.484375 11.953125 Z M -7.484375 11.953125 "/></g></g></g><g fill="#ffffff" fill-opacity="1"><g transform="translate(130.697297, 199.962111)"><g><path d="M -6.828125 0.671875 C -5.660156 0.515625 -4.617188 0.632812 -3.703125 1.03125 C -2.796875 1.4375 -2.046875 2.078125 -1.453125 2.953125 C -0.867188 3.835938 -0.492188 4.894531 -0.328125 6.125 C -0.160156 7.375 -0.238281 8.503906 -0.5625 9.515625 C -0.894531 10.535156 -1.429688 11.367188 -2.171875 12.015625 C -2.921875 12.660156 -3.84375 13.0625 -4.9375 13.21875 C -5.582031 13.300781 -6.222656 13.273438 -6.859375 13.140625 C -7.492188 13.015625 -8.097656 12.75 -8.671875 12.34375 C -9.253906 11.945312 -9.742188 11.378906 -10.140625 10.640625 C -10.546875 9.910156 -10.828125 8.976562 -10.984375 7.84375 L -11.09375 7.0625 L -2.28125 5.859375 C -2.5 4.566406 -3 3.617188 -3.78125 3.015625 C -4.570312 2.421875 -5.515625 2.195312 -6.609375 2.34375 C -7.335938 2.445312 -7.941406 2.691406 -8.421875 3.078125 C -8.910156 3.472656 -9.234375 4.003906 -9.390625 4.671875 L -11.25 4.390625 C -11.09375 3.441406 -10.625 2.625 -9.84375 1.9375 C -9.070312 1.257812 -8.066406 0.835938 -6.828125 0.671875 Z M -2.046875 7.46875 L -8.96875 8.421875 C -8.832031 9.441406 -8.414062 10.25 -7.71875 10.84375 C -7.019531 11.445312 -6.164062 11.679688 -5.15625 11.546875 C -4.445312 11.441406 -3.851562 11.1875 -3.375 10.78125 C -2.90625 10.375 -2.554688 9.878906 -2.328125 9.296875 C -2.097656 8.710938 -2.003906 8.101562 -2.046875 7.46875 Z M -2.046875 7.46875 "/></g></g></g><g fill="#ffffff" fill-opacity="1"><g transform="translate(118.753375, 201.665788)"><g><path d="M -3.671875 7.34375 L -3.609375 -0.03125 L -1.71875 -0.015625 L -1.8125 12.25 L -3.640625 12.234375 L -3.625 10.3125 L -3.78125 10.3125 C -4.082031 10.9375 -4.523438 11.4375 -5.109375 11.8125 C -5.691406 12.1875 -6.445312 12.367188 -7.375 12.359375 C -8.613281 12.347656 -9.613281 11.957031 -10.375 11.1875 C -11.132812 10.425781 -11.507812 9.265625 -11.5 7.703125 L -11.4375 -0.09375 L -9.546875 -0.078125 L -9.609375 7.59375 C -9.617188 8.550781 -9.375 9.300781 -8.875 9.84375 C -8.375 10.394531 -7.6875 10.675781 -6.8125 10.6875 C -5.914062 10.6875 -5.171875 10.394531 -4.578125 9.8125 C -3.984375 9.238281 -3.679688 8.414062 -3.671875 7.34375 Z M -3.671875 7.34375 "/></g></g></g><g fill="#ffffff" fill-opacity="1"><g transform="translate(106.654423, 201.679645)"><g><path d="M -6.25 -1.234375 C -5.238281 -1.078125 -4.382812 -0.679688 -3.6875 -0.046875 C -2.988281 0.585938 -2.492188 1.410156 -2.203125 2.421875 C -1.921875 3.429688 -1.878906 4.570312 -2.078125 5.84375 C -2.285156 7.125 -2.675781 8.195312 -3.25 9.0625 C -3.832031 9.9375 -4.550781 10.5625 -5.40625 10.9375 C -6.269531 11.320312 -7.210938 11.4375 -8.234375 11.28125 C -9.015625 11.15625 -9.617188 10.925781 -10.046875 10.59375 C -10.472656 10.269531 -10.78125 9.925781 -10.96875 9.5625 C -11.15625 9.195312 -11.300781 8.890625 -11.40625 8.640625 L -11.5625 8.625 L -12.5 14.59375 L -14.375 14.296875 L -11.84375 -1.859375 L -10.03125 -1.578125 L -10.328125 0.296875 L -10.109375 0.328125 C -9.921875 0.128906 -9.675781 -0.113281 -9.375 -0.40625 C -9.070312 -0.707031 -8.664062 -0.953125 -8.15625 -1.140625 C -7.65625 -1.328125 -7.019531 -1.359375 -6.25 -1.234375 Z M -6.75 0.390625 C -7.875 0.222656 -8.800781 0.519531 -9.53125 1.28125 C -10.257812 2.050781 -10.734375 3.117188 -10.953125 4.484375 C -11.160156 5.847656 -11.035156 6.992188 -10.578125 7.921875 C -10.128906 8.847656 -9.335938 9.398438 -8.203125 9.578125 C -7.410156 9.703125 -6.71875 9.601562 -6.125 9.28125 C -5.539062 8.96875 -5.066406 8.484375 -4.703125 7.828125 C -4.335938 7.179688 -4.085938 6.429688 -3.953125 5.578125 C -3.816406 4.722656 -3.828125 3.921875 -3.984375 3.171875 C -4.140625 2.429688 -4.441406 1.8125 -4.890625 1.3125 C -5.347656 0.820312 -5.96875 0.515625 -6.75 0.390625 Z M -6.75 0.390625 "/></g></g></g><g fill="#ffffff" fill-opacity="1"><g transform="translate(93.69861, 199.477276)"><g/></g></g><g fill="#ffffff" fill-opacity="1"><g transform="translate(88.139097, 198.022454)"><g><path d="M -10.796875 9.15625 L -10.25 7.65625 L -7.78125 8.546875 L -5.359375 1.8125 C -5.179688 1.3125 -5.117188 0.910156 -5.171875 0.609375 C -5.234375 0.304688 -5.367188 0.0703125 -5.578125 -0.09375 C -5.785156 -0.269531 -6.015625 -0.398438 -6.265625 -0.484375 C -6.460938 -0.554688 -6.628906 -0.601562 -6.765625 -0.625 C -6.898438 -0.65625 -7.007812 -0.679688 -7.09375 -0.703125 L -6.859375 -2.40625 C -6.734375 -2.414062 -6.554688 -2.398438 -6.328125 -2.359375 C -6.097656 -2.328125 -5.816406 -2.25 -5.484375 -2.125 C -4.984375 -1.945312 -4.53125 -1.664062 -4.125 -1.28125 C -3.726562 -0.894531 -3.453125 -0.425781 -3.296875 0.125 C -3.140625 0.675781 -3.179688 1.285156 -3.421875 1.953125 L -6.015625 9.171875 L -4.265625 9.8125 L -4.8125 11.3125 L -6.5625 10.671875 L -7.546875 13.4375 L -9.3125 12.8125 L -8.328125 10.046875 Z M -10.796875 9.15625 "/></g></g></g><g fill="#ffffff" fill-opacity="1"><g transform="translate(81.168788, 195.72619)"><g><path d="M -6.53125 4.984375 L -3.234375 -1.609375 L -1.53125 -0.765625 L -8.828125 13.875 L -10.53125 13.03125 L -7.84375 7.640625 L -7.984375 7.578125 C -8.523438 8.015625 -9.140625 8.273438 -9.828125 8.359375 C -10.515625 8.441406 -11.285156 8.265625 -12.140625 7.828125 C -13.273438 7.265625 -14.015625 6.472656 -14.359375 5.453125 C -14.703125 4.441406 -14.523438 3.234375 -13.828125 1.828125 L -10.34375 -5.15625 L -8.65625 -4.3125 L -12.078125 2.546875 C -12.503906 3.421875 -12.613281 4.207031 -12.40625 4.90625 C -12.195312 5.613281 -11.691406 6.164062 -10.890625 6.5625 C -10.054688 6.976562 -9.238281 7.0625 -8.4375 6.8125 C -7.632812 6.5625 -7 5.953125 -6.53125 4.984375 Z M -6.53125 4.984375 "/></g></g></g><g fill="#ffffff" fill-opacity="1"><g transform="translate(70.172971, 190.326145)"><g><path d="M -5.5 -4.109375 C -4.53125 -3.441406 -3.84375 -2.648438 -3.4375 -1.734375 C -3.03125 -0.816406 -2.910156 0.160156 -3.078125 1.203125 C -3.242188 2.242188 -3.679688 3.273438 -4.390625 4.296875 C -5.109375 5.335938 -5.925781 6.117188 -6.84375 6.640625 C -7.769531 7.171875 -8.726562 7.421875 -9.71875 7.390625 C -10.707031 7.359375 -11.65625 7.03125 -12.5625 6.40625 C -13.09375 6.03125 -13.550781 5.582031 -13.9375 5.0625 C -14.332031 4.539062 -14.601562 3.9375 -14.75 3.25 C -14.894531 2.570312 -14.867188 1.828125 -14.671875 1.015625 C -14.472656 0.203125 -14.050781 -0.675781 -13.40625 -1.625 L -12.953125 -2.28125 L -5.640625 2.78125 C -4.929688 1.6875 -4.660156 0.65625 -4.828125 -0.3125 C -5.003906 -1.289062 -5.546875 -2.09375 -6.453125 -2.71875 C -7.054688 -3.144531 -7.671875 -3.378906 -8.296875 -3.421875 C -8.921875 -3.460938 -9.515625 -3.285156 -10.078125 -2.890625 L -11.28125 -4.34375 C -10.519531 -4.957031 -9.617188 -5.25 -8.578125 -5.21875 C -7.546875 -5.1875 -6.519531 -4.816406 -5.5 -4.109375 Z M -6.5625 4.125 L -12.3125 0.140625 C -12.894531 0.984375 -13.128906 1.863281 -13.015625 2.78125 C -12.898438 3.695312 -12.425781 4.445312 -11.59375 5.03125 C -11 5.4375 -10.390625 5.648438 -9.765625 5.671875 C -9.140625 5.691406 -8.550781 5.5625 -8 5.28125 C -7.445312 5.007812 -6.96875 4.625 -6.5625 4.125 Z M -6.5625 4.125 "/></g></g></g><g fill="#ffffff" fill-opacity="1"><g transform="translate(60.133046, 183.193414)"><g/></g></g><g fill="#ffffff" fill-opacity="1"><g transform="translate(55.776084, 179.729425)"><g><path d="M -4.5 -5.171875 C -3.695312 -4.316406 -3.191406 -3.398438 -2.984375 -2.421875 C -2.785156 -1.441406 -2.875 -0.460938 -3.25 0.515625 C -3.632812 1.503906 -4.285156 2.425781 -5.203125 3.28125 C -6.117188 4.144531 -7.082031 4.734375 -8.09375 5.046875 C -9.101562 5.367188 -10.085938 5.414062 -11.046875 5.1875 C -12.003906 4.957031 -12.863281 4.4375 -13.625 3.625 C -14.0625 3.15625 -14.414062 2.617188 -14.6875 2.015625 C -14.957031 1.421875 -15.09375 0.773438 -15.09375 0.078125 C -15.101562 -0.617188 -14.921875 -1.34375 -14.546875 -2.09375 C -14.179688 -2.851562 -13.582031 -3.625 -12.75 -4.40625 L -12.171875 -4.953125 L -6.09375 1.546875 C -5.164062 0.617188 -4.6875 -0.335938 -4.65625 -1.328125 C -4.625 -2.316406 -4.984375 -3.210938 -5.734375 -4.015625 C -6.242188 -4.554688 -6.796875 -4.910156 -7.390625 -5.078125 C -7.992188 -5.253906 -8.613281 -5.210938 -9.25 -4.953125 L -10.109375 -6.640625 C -9.242188 -7.054688 -8.304688 -7.144531 -7.296875 -6.90625 C -6.285156 -6.664062 -5.351562 -6.085938 -4.5 -5.171875 Z M -7.28125 2.65625 L -12.0625 -2.4375 C -12.8125 -1.738281 -13.226562 -0.929688 -13.3125 -0.015625 C -13.394531 0.898438 -13.085938 1.726562 -12.390625 2.46875 C -11.898438 3 -11.351562 3.335938 -10.75 3.484375 C -10.144531 3.628906 -9.535156 3.625 -8.921875 3.46875 C -8.316406 3.320312 -7.769531 3.050781 -7.28125 2.65625 Z M -7.28125 2.65625 "/></g></g></g><g fill="#ffffff" fill-opacity="1"><g transform="translate(47.379524, 171.345979)"><g><path d="M -0.9375 -1.4375 L -11.234375 5.234375 L -12.21875 3.6875 L -10.609375 2.640625 L -10.703125 2.515625 C -11.378906 2.648438 -12.023438 2.578125 -12.640625 2.296875 C -13.265625 2.023438 -13.796875 1.550781 -14.234375 0.875 C -14.660156 0.195312 -14.867188 -0.460938 -14.859375 -1.109375 C -14.847656 -1.765625 -14.65625 -2.394531 -14.28125 -3 L -14.34375 -3.109375 C -15.039062 -3.023438 -15.71875 -3.144531 -16.375 -3.46875 C -17.03125 -3.800781 -17.597656 -4.332031 -18.078125 -5.0625 C -18.679688 -5.988281 -18.882812 -6.929688 -18.6875 -7.890625 C -18.488281 -8.847656 -17.785156 -9.722656 -16.578125 -10.515625 L -9.6875 -14.96875 L -8.671875 -13.375 L -15.5625 -8.921875 C -16.320312 -8.421875 -16.726562 -7.851562 -16.78125 -7.21875 C -16.84375 -6.59375 -16.691406 -6.003906 -16.328125 -5.453125 C -15.859375 -4.722656 -15.273438 -4.300781 -14.578125 -4.1875 C -13.890625 -4.082031 -13.210938 -4.242188 -12.546875 -4.671875 L -5.84375 -9.015625 L -4.796875 -7.390625 L -11.859375 -2.8125 C -12.441406 -2.4375 -12.785156 -1.941406 -12.890625 -1.328125 C -13.003906 -0.710938 -12.867188 -0.109375 -12.484375 0.484375 C -12.222656 0.890625 -11.867188 1.195312 -11.421875 1.40625 C -10.972656 1.613281 -10.484375 1.703125 -9.953125 1.671875 C -9.421875 1.640625 -8.90625 1.460938 -8.40625 1.140625 L -1.96875 -3.03125 Z M -0.9375 -1.4375 "/></g></g></g><g fill="#ffffff" fill-opacity="1"><g transform="translate(37.601914, 155.913205)"><g><path d="M -1.8125 -5.015625 C -1.507812 -4.304688 -1.367188 -3.601562 -1.390625 -2.90625 C -1.410156 -2.207031 -1.609375 -1.578125 -1.984375 -1.015625 C -2.367188 -0.453125 -2.925781 -0.015625 -3.65625 0.296875 C -4.300781 0.566406 -4.878906 0.660156 -5.390625 0.578125 C -5.910156 0.492188 -6.375 0.285156 -6.78125 -0.046875 C -7.195312 -0.378906 -7.570312 -0.773438 -7.90625 -1.234375 C -8.238281 -1.703125 -8.546875 -2.1875 -8.828125 -2.6875 C -9.210938 -3.34375 -9.515625 -3.875 -9.734375 -4.28125 C -9.960938 -4.6875 -10.171875 -4.960938 -10.359375 -5.109375 C -10.554688 -5.253906 -10.796875 -5.269531 -11.078125 -5.15625 L -11.125 -5.125 C -11.851562 -4.820312 -12.335938 -4.390625 -12.578125 -3.828125 C -12.828125 -3.265625 -12.78125 -2.582031 -12.4375 -1.78125 C -12.09375 -0.957031 -11.632812 -0.382812 -11.0625 -0.0625 C -10.5 0.25 -9.972656 0.414062 -9.484375 0.4375 L -9.375 2.328125 C -10.1875 2.316406 -10.890625 2.148438 -11.484375 1.828125 C -12.078125 1.503906 -12.570312 1.078125 -12.96875 0.546875 C -13.375 0.0234375 -13.695312 -0.519531 -13.9375 -1.09375 C -14.082031 -1.457031 -14.210938 -1.890625 -14.328125 -2.390625 C -14.453125 -2.898438 -14.472656 -3.429688 -14.390625 -3.984375 C -14.316406 -4.546875 -14.070312 -5.085938 -13.65625 -5.609375 C -13.25 -6.128906 -12.59375 -6.578125 -11.6875 -6.953125 L -4.25 -10.09375 L -3.515625 -8.34375 L -5.046875 -7.703125 L -5.015625 -7.625 C -4.722656 -7.613281 -4.375 -7.523438 -3.96875 -7.359375 C -3.570312 -7.203125 -3.179688 -6.9375 -2.796875 -6.5625 C -2.410156 -6.195312 -2.082031 -5.679688 -1.8125 -5.015625 Z M -3.484375 -4.640625 C -3.773438 -5.316406 -4.15625 -5.832031 -4.625 -6.1875 C -5.09375 -6.550781 -5.585938 -6.765625 -6.109375 -6.828125 C -6.640625 -6.890625 -7.140625 -6.820312 -7.609375 -6.625 L -9.1875 -5.953125 C -9.082031 -5.921875 -8.9375 -5.796875 -8.75 -5.578125 C -8.570312 -5.359375 -8.390625 -5.097656 -8.203125 -4.796875 C -8.023438 -4.492188 -7.851562 -4.195312 -7.6875 -3.90625 C -7.519531 -3.625 -7.390625 -3.398438 -7.296875 -3.234375 C -7.035156 -2.804688 -6.757812 -2.425781 -6.46875 -2.09375 C -6.175781 -1.757812 -5.847656 -1.523438 -5.484375 -1.390625 C -5.128906 -1.265625 -4.734375 -1.296875 -4.296875 -1.484375 C -3.691406 -1.734375 -3.332031 -2.144531 -3.21875 -2.71875 C -3.101562 -3.300781 -3.191406 -3.941406 -3.484375 -4.640625 Z M -3.484375 -4.640625 "/></g></g></g><g fill="#ffffff" fill-opacity="1"><g transform="translate(33.089323, 144.842927)"><g><path d="M -0.515625 -1.640625 L -12.234375 2 L -12.78125 0.1875 L -1.0625 -3.453125 Z M -14.46875 1.6875 C -14.351562 2.039062 -14.375 2.378906 -14.53125 2.703125 C -14.695312 3.023438 -14.941406 3.238281 -15.265625 3.34375 C -15.609375 3.445312 -15.9375 3.410156 -16.25 3.234375 C -16.5625 3.054688 -16.773438 2.789062 -16.890625 2.4375 C -16.992188 2.082031 -16.96875 1.742188 -16.8125 1.421875 C -16.65625 1.097656 -16.40625 0.882812 -16.0625 0.78125 C -15.738281 0.675781 -15.414062 0.710938 -15.09375 0.890625 C -14.78125 1.066406 -14.570312 1.332031 -14.46875 1.6875 Z M -14.46875 1.6875 "/></g></g></g><g fill="#ffffff" fill-opacity="1"><g transform="translate(31.622729, 140.160988)"><g><path d="M -16.75 0.4375 L -0.875 -3.5 L -0.40625 -1.671875 L -16.28125 2.265625 Z M -16.75 0.4375 "/></g></g></g></svg>