<svg xmlns="http://www.w3.org/2000/svg" xmlns:xlink="http://www.w3.org/1999/xlink" width="300" zoomAndPan="magnify" viewBox="0 0 224.87999 225" height="300" preserveAspectRatio="xMidYMid meet" version="1.0"><defs><g/></defs><g fill="#ffffff" fill-opacity="1"><g transform="translate(30.90234, 89.944702)"><g><path d="M -7.796875 -14.46875 C -8.585938 -14.644531 -9.304688 -14.488281 -9.953125 -14 C -10.609375 -13.519531 -11.101562 -12.816406 -11.4375 -11.890625 C -11.8125 -10.867188 -11.867188 -9.957031 -11.609375 -9.15625 C -11.359375 -8.363281 -10.863281 -7.832031 -10.125 -7.5625 C -9.570312 -7.363281 -9.066406 -7.367188 -8.609375 -7.578125 C -8.148438 -7.796875 -7.738281 -8.101562 -7.375 -8.5 C -7.019531 -8.894531 -6.726562 -9.265625 -6.5 -9.609375 L -5.484375 -11.015625 C -5.242188 -11.378906 -4.941406 -11.769531 -4.578125 -12.1875 C -4.210938 -12.613281 -3.785156 -12.992188 -3.296875 -13.328125 C -2.816406 -13.671875 -2.273438 -13.898438 -1.671875 -14.015625 C -1.078125 -14.128906 -0.421875 -14.050781 0.296875 -13.78125 C 1.128906 -13.476562 1.800781 -12.988281 2.3125 -12.3125 C 2.832031 -11.644531 3.132812 -10.820312 3.21875 -9.84375 C 3.3125 -8.875 3.144531 -7.800781 2.71875 -6.625 C 2.113281 -4.976562 1.242188 -3.8125 0.109375 -3.125 C -1.015625 -2.4375 -2.226562 -2.273438 -3.53125 -2.640625 L -2.828125 -4.5625 C -2.222656 -4.40625 -1.664062 -4.429688 -1.15625 -4.640625 C -0.65625 -4.847656 -0.21875 -5.179688 0.15625 -5.640625 C 0.53125 -6.097656 0.828125 -6.628906 1.046875 -7.234375 C 1.296875 -7.941406 1.40625 -8.617188 1.375 -9.265625 C 1.351562 -9.921875 1.191406 -10.488281 0.890625 -10.96875 C 0.597656 -11.445312 0.171875 -11.789062 -0.390625 -12 C -0.898438 -12.1875 -1.367188 -12.191406 -1.796875 -12.015625 C -2.222656 -11.847656 -2.617188 -11.566406 -2.984375 -11.171875 C -3.347656 -10.785156 -3.703125 -10.347656 -4.046875 -9.859375 L -5.28125 -8.171875 C -6.0625 -7.097656 -6.898438 -6.328125 -7.796875 -5.859375 C -8.691406 -5.390625 -9.660156 -5.34375 -10.703125 -5.71875 C -11.546875 -6.03125 -12.203125 -6.539062 -12.671875 -7.25 C -13.148438 -7.957031 -13.425781 -8.769531 -13.5 -9.6875 C -13.570312 -10.613281 -13.429688 -11.566406 -13.078125 -12.546875 C -12.710938 -13.535156 -12.210938 -14.351562 -11.578125 -15 C -10.941406 -15.644531 -10.238281 -16.082031 -9.46875 -16.3125 C -8.695312 -16.539062 -7.921875 -16.523438 -7.140625 -16.265625 Z M -7.796875 -14.46875 "/></g></g></g><g fill="#ffffff" fill-opacity="1"><g transform="translate(35.435535, 77.459769)"><g><path d="M 3.40625 -5.765625 C 2.863281 -4.765625 2.15625 -4.023438 1.28125 -3.546875 C 0.414062 -3.078125 -0.539062 -2.875 -1.59375 -2.9375 C -2.644531 -3 -3.707031 -3.320312 -4.78125 -3.90625 C -5.882812 -4.5 -6.742188 -5.222656 -7.359375 -6.078125 C -7.984375 -6.929688 -8.332031 -7.847656 -8.40625 -8.828125 C -8.488281 -9.816406 -8.269531 -10.800781 -7.75 -11.78125 C -7.332031 -12.539062 -6.820312 -13.148438 -6.21875 -13.609375 C -5.613281 -14.066406 -4.953125 -14.347656 -4.234375 -14.453125 C -3.515625 -14.566406 -2.796875 -14.492188 -2.078125 -14.234375 L -2.96875 -12.578125 C -3.519531 -12.703125 -4.101562 -12.65625 -4.71875 -12.4375 C -5.34375 -12.21875 -5.851562 -11.738281 -6.25 -11 C -6.769531 -10.03125 -6.820312 -9.050781 -6.40625 -8.0625 C -6 -7.070312 -5.179688 -6.25 -3.953125 -5.59375 C -2.703125 -4.914062 -1.539062 -4.664062 -0.46875 -4.84375 C 0.59375 -5.019531 1.390625 -5.597656 1.921875 -6.578125 C 2.273438 -7.234375 2.410156 -7.878906 2.328125 -8.515625 C 2.242188 -9.160156 1.953125 -9.71875 1.453125 -10.1875 L 2.34375 -11.84375 C 2.925781 -11.40625 3.367188 -10.863281 3.671875 -10.21875 C 3.984375 -9.570312 4.125 -8.867188 4.09375 -8.109375 C 4.070312 -7.347656 3.84375 -6.566406 3.40625 -5.765625 Z M 3.40625 -5.765625 "/></g></g></g><g fill="#ffffff" fill-opacity="1"><g transform="translate(41.063952, 67.195897)"><g><path d="M 0.984375 -1.40625 L -9.0625 -8.453125 L -8.015625 -9.953125 L -6.484375 -8.875 L -6.40625 -8.96875 C -6.789062 -9.507812 -6.96875 -10.125 -6.9375 -10.8125 C -6.914062 -11.507812 -6.691406 -12.160156 -6.265625 -12.765625 C -6.066406 -13.046875 -5.859375 -13.269531 -5.640625 -13.4375 C -5.429688 -13.601562 -5.21875 -13.722656 -5 -13.796875 L -4.046875 -12.359375 C -4.179688 -12.285156 -4.316406 -12.1875 -4.453125 -12.0625 C -4.597656 -11.945312 -4.738281 -11.789062 -4.875 -11.59375 C -5.382812 -10.863281 -5.582031 -10.101562 -5.46875 -9.3125 C -5.351562 -8.519531 -4.957031 -7.882812 -4.28125 -7.40625 L 2.078125 -2.953125 Z M 0.984375 -1.40625 "/></g></g></g><g fill="#ffffff" fill-opacity="1"><g transform="translate(45.357312, 60.725668)"><g><path d="M 4.671875 -4.8125 C 3.929688 -3.988281 3.085938 -3.441406 2.140625 -3.171875 C 1.191406 -2.910156 0.207031 -2.921875 -0.8125 -3.203125 C -1.832031 -3.492188 -2.8125 -4.0625 -3.75 -4.90625 C -4.695312 -5.757812 -5.367188 -6.675781 -5.765625 -7.65625 C -6.160156 -8.644531 -6.273438 -9.625 -6.109375 -10.59375 C -5.953125 -11.5625 -5.503906 -12.457031 -4.765625 -13.28125 C -4.023438 -14.113281 -3.179688 -14.660156 -2.234375 -14.921875 C -1.285156 -15.191406 -0.300781 -15.179688 0.71875 -14.890625 C 1.738281 -14.597656 2.722656 -14.023438 3.671875 -13.171875 C 4.609375 -12.328125 5.273438 -11.414062 5.671875 -10.4375 C 6.066406 -9.457031 6.179688 -8.484375 6.015625 -7.515625 C 5.859375 -6.546875 5.410156 -5.644531 4.671875 -4.8125 Z M 3.421875 -5.9375 C 3.984375 -6.5625 4.28125 -7.222656 4.3125 -7.921875 C 4.351562 -8.617188 4.195312 -9.296875 3.84375 -9.953125 C 3.5 -10.617188 3.023438 -11.222656 2.421875 -11.765625 C 1.816406 -12.316406 1.160156 -12.734375 0.453125 -13.015625 C -0.253906 -13.296875 -0.945312 -13.378906 -1.625 -13.265625 C -2.3125 -13.148438 -2.9375 -12.78125 -3.5 -12.15625 C -4.0625 -11.539062 -4.363281 -10.882812 -4.40625 -10.1875 C -4.445312 -9.488281 -4.285156 -8.800781 -3.921875 -8.125 C -3.566406 -7.457031 -3.085938 -6.847656 -2.484375 -6.296875 C -1.878906 -5.753906 -1.226562 -5.347656 -0.53125 -5.078125 C 0.164062 -4.804688 0.859375 -4.726562 1.546875 -4.84375 C 2.234375 -4.957031 2.859375 -5.320312 3.421875 -5.9375 Z M 3.421875 -5.9375 "/></g></g></g><g fill="#ffffff" fill-opacity="1"><g transform="translate(53.939484, 51.421702)"><g><path d="M -8.328125 -14.53125 L 2.671875 -2.421875 L 1.265625 -1.15625 L -9.734375 -13.265625 Z M -8.328125 -14.53125 "/></g></g></g><g fill="#ffffff" fill-opacity="1"><g transform="translate(57.56401, 48.115009)"><g><path d="M -7.453125 -15 L 2.8125 -2.265625 L 1.34375 -1.078125 L -8.921875 -13.8125 Z M -7.453125 -15 "/></g></g></g><g fill="#ffffff" fill-opacity="1"><g transform="translate(61.331964, 45.031166)"><g/></g></g><g fill="#ffffff" fill-opacity="1"><g transform="translate(65.703194, 41.632337)"><g><path d="M 5.6875 -2.859375 C 4.789062 -2.359375 3.875 -2.144531 2.9375 -2.21875 C 2 -2.289062 1.109375 -2.640625 0.265625 -3.265625 C -0.578125 -3.890625 -1.3125 -4.765625 -1.9375 -5.890625 C -2.5625 -7.023438 -2.910156 -8.109375 -2.984375 -9.140625 C -3.066406 -10.179688 -2.882812 -11.117188 -2.4375 -11.953125 C -1.988281 -12.796875 -1.3125 -13.46875 -0.40625 -13.96875 C 0.289062 -14.351562 0.90625 -14.539062 1.4375 -14.53125 C 1.96875 -14.53125 2.421875 -14.441406 2.796875 -14.265625 C 3.171875 -14.097656 3.476562 -13.957031 3.71875 -13.84375 L 3.84375 -13.90625 L 0.921875 -19.1875 L 2.578125 -20.109375 L 10.484375 -5.796875 L 8.890625 -4.90625 L 7.96875 -6.5625 L 7.78125 -6.46875 C 7.757812 -6.195312 7.722656 -5.847656 7.671875 -5.421875 C 7.617188 -5.003906 7.445312 -4.566406 7.15625 -4.109375 C 6.863281 -3.648438 6.375 -3.234375 5.6875 -2.859375 Z M 5.09375 -4.46875 C 6.09375 -5.007812 6.644531 -5.804688 6.75 -6.859375 C 6.851562 -7.910156 6.566406 -9.039062 5.890625 -10.25 C 5.234375 -11.457031 4.4375 -12.285156 3.5 -12.734375 C 2.570312 -13.191406 1.601562 -13.144531 0.59375 -12.59375 C -0.101562 -12.195312 -0.582031 -11.691406 -0.84375 -11.078125 C -1.113281 -10.472656 -1.195312 -9.800781 -1.09375 -9.0625 C -0.988281 -8.332031 -0.726562 -7.585938 -0.3125 -6.828125 C 0.113281 -6.066406 0.613281 -5.441406 1.1875 -4.953125 C 1.769531 -4.460938 2.394531 -4.160156 3.0625 -4.046875 C 3.726562 -3.941406 4.40625 -4.082031 5.09375 -4.46875 Z M 5.09375 -4.46875 "/></g></g></g><g fill="#ffffff" fill-opacity="1"><g transform="translate(76.951295, 35.349077)"><g><path d="M 6.375 -2.09375 C 5.34375 -1.707031 4.34375 -1.617188 3.375 -1.828125 C 2.40625 -2.035156 1.535156 -2.5 0.765625 -3.21875 C 0.00390625 -3.945312 -0.59375 -4.90625 -1.03125 -6.09375 C -1.476562 -7.289062 -1.644531 -8.414062 -1.53125 -9.46875 C -1.425781 -10.53125 -1.078125 -11.445312 -0.484375 -12.21875 C 0.109375 -13 0.921875 -13.582031 1.953125 -13.96875 C 2.992188 -14.363281 4 -14.457031 4.96875 -14.25 C 5.9375 -14.050781 6.800781 -13.582031 7.5625 -12.84375 C 8.332031 -12.113281 8.941406 -11.148438 9.390625 -9.953125 C 9.828125 -8.765625 9.988281 -7.644531 9.875 -6.59375 C 9.769531 -5.550781 9.421875 -4.640625 8.828125 -3.859375 C 8.234375 -3.078125 7.414062 -2.488281 6.375 -2.09375 Z M 5.78125 -3.671875 C 6.570312 -3.960938 7.144531 -4.40625 7.5 -5 C 7.863281 -5.601562 8.039062 -6.28125 8.03125 -7.03125 C 8.03125 -7.78125 7.890625 -8.535156 7.609375 -9.296875 C 7.316406 -10.066406 6.925781 -10.738281 6.4375 -11.3125 C 5.957031 -11.882812 5.382812 -12.28125 4.71875 -12.5 C 4.0625 -12.71875 3.335938 -12.679688 2.546875 -12.390625 C 1.765625 -12.097656 1.191406 -11.648438 0.828125 -11.046875 C 0.472656 -10.453125 0.296875 -9.78125 0.296875 -9.03125 C 0.296875 -8.28125 0.441406 -7.519531 0.734375 -6.75 C 1.015625 -5.988281 1.398438 -5.320312 1.890625 -4.75 C 2.378906 -4.175781 2.953125 -3.78125 3.609375 -3.5625 C 4.273438 -3.34375 5 -3.378906 5.78125 -3.671875 Z M 5.78125 -3.671875 "/></g></g></g><g fill="#ffffff" fill-opacity="1"><g transform="translate(88.282385, 30.807266)"><g><path d="M 4.421875 -0.8125 L -1.484375 -12.203125 L 0.46875 -12.5625 L 4.78125 -3.8125 L 4.921875 -3.828125 L 5.765625 -13.546875 L 7.75 -13.90625 L 12 -5.171875 L 12.125 -5.203125 L 13.015625 -14.875 L 14.96875 -15.234375 L 13.53125 -2.5 L 11.703125 -2.15625 L 7.359375 -10.9375 L 7.15625 -10.90625 L 6.25 -1.15625 Z M 4.421875 -0.8125 "/></g></g></g><g fill="#ffffff" fill-opacity="1"><g transform="translate(105.048952, 27.824317)"><g><path d="M 3.53125 -7.421875 L 3.609375 -0.046875 L 1.71875 -0.015625 L 1.578125 -12.28125 L 3.40625 -12.3125 L 3.4375 -10.390625 L 3.59375 -10.390625 C 3.875 -11.015625 4.300781 -11.519531 4.875 -11.90625 C 5.457031 -12.289062 6.210938 -12.488281 7.140625 -12.5 C 8.378906 -12.519531 9.382812 -12.148438 10.15625 -11.390625 C 10.9375 -10.640625 11.332031 -9.484375 11.34375 -7.921875 L 11.4375 -0.125 L 9.546875 -0.109375 L 9.453125 -7.78125 C 9.441406 -8.738281 9.179688 -9.484375 8.671875 -10.015625 C 8.171875 -10.554688 7.484375 -10.820312 6.609375 -10.8125 C 5.710938 -10.800781 4.96875 -10.5 4.375 -9.90625 C 3.789062 -9.320312 3.507812 -8.492188 3.53125 -7.421875 Z M 3.53125 -7.421875 "/></g></g></g><g fill="#ffffff" fill-opacity="1"><g transform="translate(117.424721, 27.82427)"><g/></g></g><g fill="#ffffff" fill-opacity="1"><g transform="translate(123.150868, 28.309728)"><g><path d="M 9.078125 -10.859375 L 8.796875 -9.296875 L 6.21875 -9.75 L 4.984375 -2.703125 C 4.890625 -2.171875 4.894531 -1.757812 5 -1.46875 C 5.101562 -1.1875 5.269531 -0.976562 5.5 -0.84375 C 5.738281 -0.707031 5.988281 -0.617188 6.25 -0.578125 C 6.457031 -0.535156 6.628906 -0.515625 6.765625 -0.515625 C 6.898438 -0.523438 7.007812 -0.523438 7.09375 -0.515625 L 7.1875 1.203125 C 7.050781 1.234375 6.863281 1.25 6.625 1.25 C 6.394531 1.257812 6.101562 1.234375 5.75 1.171875 C 5.226562 1.078125 4.738281 0.875 4.28125 0.5625 C 3.820312 0.25 3.46875 -0.164062 3.21875 -0.6875 C 2.976562 -1.207031 2.921875 -1.816406 3.046875 -2.515625 L 4.375 -10.078125 L 2.53125 -10.390625 L 2.8125 -11.953125 L 4.65625 -11.640625 L 5.15625 -14.53125 L 7 -14.203125 L 6.5 -11.3125 Z M 9.078125 -10.859375 "/></g></g></g><g fill="#ffffff" fill-opacity="1"><g transform="translate(130.407199, 29.37707)"><g><path d="M 6.34375 2.15625 C 5.28125 1.84375 4.425781 1.316406 3.78125 0.578125 C 3.132812 -0.160156 2.726562 -1.050781 2.5625 -2.09375 C 2.394531 -3.144531 2.492188 -4.273438 2.859375 -5.484375 C 3.222656 -6.703125 3.765625 -7.703125 4.484375 -8.484375 C 5.203125 -9.265625 6.035156 -9.785156 6.984375 -10.046875 C 7.929688 -10.304688 8.9375 -10.28125 10 -9.96875 C 11.0625 -9.644531 11.914062 -9.113281 12.5625 -8.375 C 13.207031 -7.632812 13.613281 -6.738281 13.78125 -5.6875 C 13.957031 -4.632812 13.863281 -3.5 13.5 -2.28125 C 13.132812 -1.070312 12.585938 -0.0820312 11.859375 0.6875 C 11.140625 1.46875 10.304688 1.988281 9.359375 2.25 C 8.410156 2.507812 7.40625 2.476562 6.34375 2.15625 Z M 6.828125 0.546875 C 7.628906 0.796875 8.351562 0.789062 9 0.53125 C 9.644531 0.269531 10.191406 -0.15625 10.640625 -0.75 C 11.097656 -1.351562 11.445312 -2.046875 11.6875 -2.828125 C 11.914062 -3.609375 12.003906 -4.375 11.953125 -5.125 C 11.910156 -5.882812 11.691406 -6.550781 11.296875 -7.125 C 10.910156 -7.695312 10.316406 -8.109375 9.515625 -8.359375 C 8.710938 -8.597656 7.984375 -8.585938 7.328125 -8.328125 C 6.679688 -8.066406 6.128906 -7.628906 5.671875 -7.015625 C 5.222656 -6.410156 4.882812 -5.71875 4.65625 -4.9375 C 4.414062 -4.15625 4.316406 -3.390625 4.359375 -2.640625 C 4.410156 -1.898438 4.632812 -1.242188 5.03125 -0.671875 C 5.425781 -0.0976562 6.023438 0.304688 6.828125 0.546875 Z M 6.828125 0.546875 "/></g></g></g><g fill="#ffffff" fill-opacity="1"><g transform="translate(142.451369, 33.148818)"><g/></g></g><g fill="#ffffff" fill-opacity="1"><g transform="translate(147.663099, 35.106179)"><g><path d="M 5.875 3.53125 C 4.84375 2.96875 4.082031 2.25 3.59375 1.375 C 3.101562 0.5 2.882812 -0.457031 2.9375 -1.5 C 3 -2.550781 3.332031 -3.625 3.9375 -4.71875 C 4.539062 -5.820312 5.273438 -6.679688 6.140625 -7.296875 C 7.003906 -7.921875 7.929688 -8.269531 8.921875 -8.34375 C 9.910156 -8.414062 10.890625 -8.179688 11.859375 -7.640625 C 12.421875 -7.328125 12.921875 -6.925781 13.359375 -6.4375 C 13.796875 -5.957031 14.125 -5.382812 14.34375 -4.71875 C 14.5625 -4.050781 14.613281 -3.300781 14.5 -2.46875 C 14.382812 -1.644531 14.050781 -0.734375 13.5 0.265625 L 13.109375 0.96875 L 5.328125 -3.34375 C 4.722656 -2.175781 4.554688 -1.117188 4.828125 -0.171875 C 5.109375 0.773438 5.734375 1.515625 6.703125 2.046875 C 7.347656 2.410156 7.976562 2.582031 8.59375 2.5625 C 9.21875 2.550781 9.796875 2.320312 10.328125 1.875 L 11.65625 3.203125 C 10.957031 3.878906 10.09375 4.253906 9.0625 4.328125 C 8.03125 4.410156 6.96875 4.144531 5.875 3.53125 Z M 6.125 -4.765625 L 12.234375 -1.375 C 12.734375 -2.28125 12.878906 -3.179688 12.671875 -4.078125 C 12.460938 -4.972656 11.914062 -5.664062 11.03125 -6.15625 C 10.394531 -6.507812 9.765625 -6.664062 9.140625 -6.625 C 8.523438 -6.582031 7.953125 -6.394531 7.421875 -6.0625 C 6.890625 -5.726562 6.457031 -5.296875 6.125 -4.765625 Z M 6.125 -4.765625 "/></g></g></g><g fill="#ffffff" fill-opacity="1"><g transform="translate(158.268939, 40.931963)"><g><path d="M 9.859375 -7.9375 L 9.203125 -2.15625 L 14.5625 -4.421875 L 16.296875 -3.109375 L 9.453125 -0.578125 L 8.9375 6.703125 L 7.203125 5.390625 L 7.71875 -0.171875 L 2.5 1.875 L 0.765625 0.578125 L 7.5625 -2 L 8.125 -9.234375 Z M 9.859375 -7.9375 "/></g></g></g><g fill="#ffffff" fill-opacity="1"><g transform="translate(167.251376, 47.497352)"><g><path d="M -2.03125 4.46875 L 9.875 -7.46875 L 11.171875 -6.1875 L 9.796875 -4.8125 L 9.953125 -4.65625 C 10.203125 -4.707031 10.53125 -4.765625 10.9375 -4.828125 C 11.351562 -4.890625 11.816406 -4.847656 12.328125 -4.703125 C 12.835938 -4.554688 13.378906 -4.203125 13.953125 -3.640625 C 14.679688 -2.910156 15.140625 -2.082031 15.328125 -1.15625 C 15.523438 -0.238281 15.445312 0.707031 15.09375 1.6875 C 14.738281 2.675781 14.101562 3.628906 13.1875 4.546875 C 12.28125 5.460938 11.332031 6.097656 10.34375 6.453125 C 9.363281 6.816406 8.410156 6.90625 7.484375 6.71875 C 6.566406 6.53125 5.75 6.078125 5.03125 5.359375 C 4.46875 4.796875 4.109375 4.257812 3.953125 3.75 C 3.804688 3.238281 3.757812 2.769531 3.8125 2.34375 C 3.875 1.914062 3.9375 1.570312 4 1.3125 L 3.890625 1.203125 L -0.6875 5.796875 Z M 6.859375 -1.8125 C 5.878906 -0.820312 5.296875 0.191406 5.109375 1.234375 C 4.921875 2.273438 5.234375 3.191406 6.046875 3.984375 C 6.597656 4.535156 7.207031 4.847656 7.875 4.921875 C 8.539062 5.003906 9.222656 4.890625 9.921875 4.578125 C 10.617188 4.265625 11.273438 3.800781 11.890625 3.1875 C 12.492188 2.582031 12.945312 1.9375 13.25 1.25 C 13.5625 0.570312 13.671875 -0.0976562 13.578125 -0.765625 C 13.484375 -1.429688 13.160156 -2.046875 12.609375 -2.609375 C 11.785156 -3.421875 10.863281 -3.734375 9.84375 -3.546875 C 8.820312 -3.359375 7.828125 -2.78125 6.859375 -1.8125 Z M 6.859375 -1.8125 "/></g></g></g><g fill="#ffffff" fill-opacity="1"><g transform="translate(176.287846, 56.752145)"><g><path d="M 14.96875 -7.53125 L 2.28125 2.796875 L 1.078125 1.328125 L 13.765625 -9 Z M 14.96875 -7.53125 "/></g></g></g><g fill="#ffffff" fill-opacity="1"><g transform="translate(179.38052, 60.168146)"><g><path d="M 3.484375 5.75 C 2.867188 4.820312 2.550781 3.863281 2.53125 2.875 C 2.507812 1.882812 2.769531 0.9375 3.3125 0.03125 C 3.851562 -0.875 4.648438 -1.671875 5.703125 -2.359375 C 6.773438 -3.066406 7.832031 -3.488281 8.875 -3.625 C 9.925781 -3.757812 10.898438 -3.617188 11.796875 -3.203125 C 12.691406 -2.796875 13.445312 -2.128906 14.0625 -1.203125 C 14.664062 -0.273438 14.976562 0.675781 15 1.65625 C 15.019531 2.632812 14.757812 3.578125 14.21875 4.484375 C 13.675781 5.398438 12.867188 6.210938 11.796875 6.921875 C 10.742188 7.609375 9.691406 8.015625 8.640625 8.140625 C 7.597656 8.273438 6.628906 8.140625 5.734375 7.734375 C 4.835938 7.335938 4.085938 6.675781 3.484375 5.75 Z M 4.890625 4.8125 C 5.347656 5.507812 5.90625 5.96875 6.5625 6.1875 C 7.21875 6.40625 7.910156 6.429688 8.640625 6.265625 C 9.378906 6.097656 10.085938 5.789062 10.765625 5.34375 C 11.453125 4.894531 12.019531 4.363281 12.46875 3.75 C 12.914062 3.144531 13.171875 2.492188 13.234375 1.796875 C 13.304688 1.109375 13.113281 0.414062 12.65625 -0.28125 C 12.195312 -0.976562 11.632812 -1.4375 10.96875 -1.65625 C 10.300781 -1.875 9.597656 -1.894531 8.859375 -1.71875 C 8.128906 -1.550781 7.421875 -1.242188 6.734375 -0.796875 C 6.054688 -0.347656 5.492188 0.175781 5.046875 0.78125 C 4.597656 1.382812 4.34375 2.03125 4.28125 2.71875 C 4.226562 3.414062 4.429688 4.113281 4.890625 4.8125 Z M 4.890625 4.8125 "/></g></g></g><g fill="#ffffff" fill-opacity="1"><g transform="translate(186.187127, 70.691183)"><g><path d="M 0.765625 1.546875 L 11.75 -3.90625 L 12.5625 -2.28125 L 10.890625 -1.453125 L 10.953125 -1.34375 C 11.597656 -1.414062 12.21875 -1.273438 12.8125 -0.921875 C 13.414062 -0.566406 13.878906 -0.0625 14.203125 0.59375 C 14.359375 0.90625 14.457031 1.191406 14.5 1.453125 C 14.539062 1.722656 14.546875 1.976562 14.515625 2.21875 L 12.78125 2.359375 C 12.789062 2.203125 12.773438 2.035156 12.734375 1.859375 C 12.691406 1.679688 12.617188 1.484375 12.515625 1.265625 C 12.117188 0.460938 11.546875 -0.0703125 10.796875 -0.34375 C 10.046875 -0.625 9.300781 -0.582031 8.5625 -0.21875 L 1.609375 3.234375 Z M 0.765625 1.546875 "/></g></g></g><g fill="#ffffff" fill-opacity="1"><g transform="translate(189.809622, 77.56986)"><g><path d="M 2.0625 6.53125 C 1.675781 5.425781 1.582031 4.382812 1.78125 3.40625 C 1.976562 2.4375 2.445312 1.578125 3.1875 0.828125 C 3.9375 0.078125 4.898438 -0.507812 6.078125 -0.9375 C 7.265625 -1.351562 8.382812 -1.503906 9.4375 -1.390625 C 10.488281 -1.285156 11.410156 -0.9375 12.203125 -0.34375 C 12.992188 0.25 13.570312 1.066406 13.9375 2.109375 C 14.15625 2.722656 14.265625 3.359375 14.265625 4.015625 C 14.273438 4.671875 14.140625 5.316406 13.859375 5.953125 C 13.585938 6.585938 13.132812 7.179688 12.5 7.734375 C 11.875 8.285156 11.023438 8.753906 9.953125 9.140625 L 9.203125 9.40625 L 6.21875 1.03125 C 4.988281 1.5 4.160156 2.179688 3.734375 3.078125 C 3.316406 3.972656 3.289062 4.9375 3.65625 5.96875 C 3.90625 6.664062 4.269531 7.210938 4.75 7.609375 C 5.226562 8.015625 5.816406 8.222656 6.515625 8.234375 L 6.625 10.109375 C 5.664062 10.160156 4.769531 9.875 3.9375 9.25 C 3.113281 8.625 2.488281 7.71875 2.0625 6.53125 Z M 7.734375 0.484375 L 10.078125 7.0625 C 11.054688 6.71875 11.765625 6.140625 12.203125 5.328125 C 12.640625 4.515625 12.6875 3.628906 12.34375 2.671875 C 12.101562 1.992188 11.734375 1.460938 11.234375 1.078125 C 10.742188 0.703125 10.191406 0.460938 9.578125 0.359375 C 8.960938 0.253906 8.347656 0.296875 7.734375 0.484375 Z M 7.734375 0.484375 "/></g></g></g><g fill="#ffffff" fill-opacity="1"><g transform="translate(193.963228, 135.047906)"><g><path d="M 7.796875 14.46875 C 8.585938 14.644531 9.304688 14.488281 9.953125 14 C 10.609375 13.519531 11.101562 12.816406 11.4375 11.890625 C 11.8125 10.867188 11.867188 9.957031 11.609375 9.15625 C 11.359375 8.363281 10.863281 7.832031 10.125 7.5625 C 9.570312 7.363281 9.066406 7.367188 8.609375 7.578125 C 8.148438 7.796875 7.738281 8.101562 7.375 8.5 C 7.019531 8.894531 6.726562 9.265625 6.5 9.609375 L 5.484375 11.015625 C 5.242188 11.378906 4.941406 11.769531 4.578125 12.1875 C 4.210938 12.613281 3.785156 12.992188 3.296875 13.328125 C 2.816406 13.671875 2.273438 13.898438 1.671875 14.015625 C 1.078125 14.128906 0.421875 14.050781 -0.296875 13.78125 C -1.128906 13.476562 -1.800781 12.988281 -2.3125 12.3125 C -2.832031 11.644531 -3.132812 10.820312 -3.21875 9.84375 C -3.3125 8.875 -3.144531 7.800781 -2.71875 6.625 C -2.113281 4.976562 -1.242188 3.8125 -0.109375 3.125 C 1.015625 2.4375 2.226562 2.273438 3.53125 2.640625 L 2.828125 4.5625 C 2.222656 4.40625 1.664062 4.429688 1.15625 4.640625 C 0.65625 4.847656 0.21875 5.179688 -0.15625 5.640625 C -0.53125 6.097656 -0.828125 6.628906 -1.046875 7.234375 C -1.296875 7.941406 -1.40625 8.617188 -1.375 9.265625 C -1.351562 9.921875 -1.191406 10.488281 -0.890625 10.96875 C -0.597656 11.445312 -0.171875 11.789062 0.390625 12 C 0.898438 12.1875 1.367188 12.191406 1.796875 12.015625 C 2.222656 11.847656 2.617188 11.566406 2.984375 11.171875 C 3.347656 10.785156 3.703125 10.347656 4.046875 9.859375 L 5.28125 8.171875 C 6.0625 7.097656 6.898438 6.328125 7.796875 5.859375 C 8.691406 5.390625 9.660156 5.34375 10.703125 5.71875 C 11.546875 6.03125 12.203125 6.539062 12.671875 7.25 C 13.148438 7.957031 13.425781 8.769531 13.5 9.6875 C 13.570312 10.613281 13.429688 11.566406 13.078125 12.546875 C 12.710938 13.535156 12.210938 14.351562 11.578125 15 C 10.941406 15.644531 10.238281 16.082031 9.46875 16.3125 C 8.695312 16.539062 7.921875 16.523438 7.140625 16.265625 Z M 7.796875 14.46875 "/></g></g></g><g fill="#ffffff" fill-opacity="1"><g transform="translate(189.43005, 147.532848)"><g><path d="M -3.40625 5.765625 C -2.863281 4.765625 -2.15625 4.023438 -1.28125 3.546875 C -0.414062 3.078125 0.539062 2.875 1.59375 2.9375 C 2.644531 3 3.707031 3.320312 4.78125 3.90625 C 5.882812 4.5 6.742188 5.222656 7.359375 6.078125 C 7.984375 6.929688 8.332031 7.847656 8.40625 8.828125 C 8.488281 9.816406 8.269531 10.800781 7.75 11.78125 C 7.332031 12.539062 6.820312 13.148438 6.21875 13.609375 C 5.613281 14.066406 4.953125 14.347656 4.234375 14.453125 C 3.515625 14.566406 2.796875 14.492188 2.078125 14.234375 L 2.96875 12.578125 C 3.519531 12.703125 4.101562 12.65625 4.71875 12.4375 C 5.34375 12.21875 5.851562 11.738281 6.25 11 C 6.769531 10.03125 6.820312 9.050781 6.40625 8.0625 C 6 7.070312 5.179688 6.25 3.953125 5.59375 C 2.703125 4.914062 1.539062 4.664062 0.46875 4.84375 C -0.59375 5.019531 -1.390625 5.597656 -1.921875 6.578125 C -2.273438 7.234375 -2.410156 7.878906 -2.328125 8.515625 C -2.242188 9.160156 -1.953125 9.71875 -1.453125 10.1875 L -2.34375 11.84375 C -2.925781 11.40625 -3.367188 10.863281 -3.671875 10.21875 C -3.984375 9.570312 -4.125 8.867188 -4.09375 8.109375 C -4.070312 7.347656 -3.84375 6.566406 -3.40625 5.765625 Z M -3.40625 5.765625 "/></g></g></g><g fill="#ffffff" fill-opacity="1"><g transform="translate(183.801615, 157.796718)"><g><path d="M -0.984375 1.40625 L 9.0625 8.453125 L 8.015625 9.953125 L 6.484375 8.875 L 6.40625 8.96875 C 6.789062 9.507812 6.96875 10.125 6.9375 10.8125 C 6.914062 11.507812 6.691406 12.160156 6.265625 12.765625 C 6.066406 13.046875 5.859375 13.269531 5.640625 13.4375 C 5.429688 13.601562 5.21875 13.722656 5 13.796875 L 4.046875 12.359375 C 4.179688 12.285156 4.316406 12.1875 4.453125 12.0625 C 4.597656 11.945312 4.738281 11.789062 4.875 11.59375 C 5.382812 10.863281 5.582031 10.101562 5.46875 9.3125 C 5.351562 8.519531 4.957031 7.882812 4.28125 7.40625 L -2.078125 2.953125 Z M -0.984375 1.40625 "/></g></g></g><g fill="#ffffff" fill-opacity="1"><g transform="translate(179.508278, 164.266933)"><g><path d="M -4.671875 4.8125 C -3.929688 3.988281 -3.085938 3.441406 -2.140625 3.171875 C -1.191406 2.910156 -0.207031 2.921875 0.8125 3.203125 C 1.832031 3.492188 2.8125 4.0625 3.75 4.90625 C 4.695312 5.757812 5.367188 6.675781 5.765625 7.65625 C 6.160156 8.644531 6.273438 9.625 6.109375 10.59375 C 5.953125 11.5625 5.503906 12.457031 4.765625 13.28125 C 4.023438 14.113281 3.179688 14.660156 2.234375 14.921875 C 1.285156 15.191406 0.300781 15.179688 -0.71875 14.890625 C -1.738281 14.597656 -2.722656 14.023438 -3.671875 13.171875 C -4.609375 12.328125 -5.273438 11.414062 -5.671875 10.4375 C -6.066406 9.457031 -6.179688 8.484375 -6.015625 7.515625 C -5.859375 6.546875 -5.410156 5.644531 -4.671875 4.8125 Z M -3.421875 5.9375 C -3.984375 6.5625 -4.28125 7.222656 -4.3125 7.921875 C -4.351562 8.617188 -4.195312 9.296875 -3.84375 9.953125 C -3.5 10.617188 -3.023438 11.222656 -2.421875 11.765625 C -1.816406 12.316406 -1.160156 12.734375 -0.453125 13.015625 C 0.253906 13.296875 0.945312 13.378906 1.625 13.265625 C 2.3125 13.148438 2.9375 12.78125 3.5 12.15625 C 4.0625 11.539062 4.363281 10.882812 4.40625 10.1875 C 4.445312 9.488281 4.285156 8.800781 3.921875 8.125 C 3.566406 7.457031 3.085938 6.847656 2.484375 6.296875 C 1.878906 5.753906 1.226562 5.347656 0.53125 5.078125 C -0.164062 4.804688 -0.859375 4.726562 -1.546875 4.84375 C -2.234375 4.957031 -2.859375 5.320312 -3.421875 5.9375 Z M -3.421875 5.9375 "/></g></g></g><g fill="#ffffff" fill-opacity="1"><g transform="translate(170.926099, 173.570903)"><g><path d="M 8.328125 14.53125 L -2.671875 2.421875 L -1.265625 1.15625 L 9.734375 13.265625 Z M 8.328125 14.53125 "/></g></g></g><g fill="#ffffff" fill-opacity="1"><g transform="translate(167.301564, 176.877605)"><g><path d="M 7.453125 15 L -2.8125 2.265625 L -1.34375 1.078125 L 8.921875 13.8125 Z M 7.453125 15 "/></g></g></g><g fill="#ffffff" fill-opacity="1"><g transform="translate(163.533617, 179.961455)"><g/></g></g><g fill="#ffffff" fill-opacity="1"><g transform="translate(159.162373, 183.360259)"><g><path d="M -5.6875 2.859375 C -4.789062 2.359375 -3.875 2.144531 -2.9375 2.21875 C -2 2.289062 -1.109375 2.640625 -0.265625 3.265625 C 0.578125 3.890625 1.3125 4.765625 1.9375 5.890625 C 2.5625 7.023438 2.910156 8.109375 2.984375 9.140625 C 3.066406 10.179688 2.882812 11.117188 2.4375 11.953125 C 1.988281 12.796875 1.3125 13.46875 0.40625 13.96875 C -0.289062 14.351562 -0.90625 14.539062 -1.4375 14.53125 C -1.96875 14.53125 -2.421875 14.441406 -2.796875 14.265625 C -3.171875 14.097656 -3.476562 13.957031 -3.71875 13.84375 L -3.84375 13.90625 L -0.921875 19.1875 L -2.578125 20.109375 L -10.484375 5.796875 L -8.890625 4.90625 L -7.96875 6.5625 L -7.78125 6.46875 C -7.757812 6.195312 -7.722656 5.847656 -7.671875 5.421875 C -7.617188 5.003906 -7.445312 4.566406 -7.15625 4.109375 C -6.863281 3.648438 -6.375 3.234375 -5.6875 2.859375 Z M -5.09375 4.46875 C -6.09375 5.007812 -6.644531 5.804688 -6.75 6.859375 C -6.851562 7.910156 -6.566406 9.039062 -5.890625 10.25 C -5.234375 11.457031 -4.4375 12.285156 -3.5 12.734375 C -2.570312 13.191406 -1.601562 13.144531 -0.59375 12.59375 C 0.101562 12.195312 0.582031 11.691406 0.84375 11.078125 C 1.113281 10.472656 1.195312 9.800781 1.09375 9.0625 C 0.988281 8.332031 0.726562 7.585938 0.3125 6.828125 C -0.113281 6.066406 -0.613281 5.441406 -1.1875 4.953125 C -1.769531 4.460938 -2.394531 4.160156 -3.0625 4.046875 C -3.726562 3.941406 -4.40625 4.082031 -5.09375 4.46875 Z M -5.09375 4.46875 "/></g></g></g><g fill="#ffffff" fill-opacity="1"><g transform="translate(147.914272, 189.643527)"><g><path d="M -6.375 2.09375 C -5.34375 1.707031 -4.34375 1.617188 -3.375 1.828125 C -2.40625 2.035156 -1.535156 2.5 -0.765625 3.21875 C -0.00390625 3.945312 0.59375 4.90625 1.03125 6.09375 C 1.476562 7.289062 1.644531 8.414062 1.53125 9.46875 C 1.425781 10.53125 1.078125 11.445312 0.484375 12.21875 C -0.109375 13 -0.921875 13.582031 -1.953125 13.96875 C -2.992188 14.363281 -4 14.457031 -4.96875 14.25 C -5.9375 14.050781 -6.800781 13.582031 -7.5625 12.84375 C -8.332031 12.113281 -8.941406 11.148438 -9.390625 9.953125 C -9.828125 8.765625 -9.988281 7.644531 -9.875 6.59375 C -9.769531 5.550781 -9.421875 4.640625 -8.828125 3.859375 C -8.234375 3.078125 -7.414062 2.488281 -6.375 2.09375 Z M -5.78125 3.671875 C -6.570312 3.960938 -7.144531 4.40625 -7.5 5 C -7.863281 5.601562 -8.039062 6.28125 -8.03125 7.03125 C -8.03125 7.78125 -7.890625 8.535156 -7.609375 9.296875 C -7.316406 10.066406 -6.925781 10.738281 -6.4375 11.3125 C -5.957031 11.882812 -5.382812 12.28125 -4.71875 12.5 C -4.0625 12.71875 -3.335938 12.679688 -2.546875 12.390625 C -1.765625 12.097656 -1.191406 11.648438 -0.828125 11.046875 C -0.472656 10.453125 -0.296875 9.78125 -0.296875 9.03125 C -0.296875 8.28125 -0.441406 7.519531 -0.734375 6.75 C -1.015625 5.988281 -1.398438 5.320312 -1.890625 4.75 C -2.378906 4.175781 -2.953125 3.78125 -3.609375 3.5625 C -4.273438 3.34375 -5 3.378906 -5.78125 3.671875 Z M -5.78125 3.671875 "/></g></g></g><g fill="#ffffff" fill-opacity="1"><g transform="translate(136.583203, 194.185347)"><g><path d="M -4.421875 0.8125 L 1.484375 12.203125 L -0.46875 12.5625 L -4.78125 3.8125 L -4.921875 3.828125 L -5.765625 13.546875 L -7.75 13.90625 L -12 5.171875 L -12.125 5.203125 L -13.015625 14.875 L -14.96875 15.234375 L -13.53125 2.5 L -11.703125 2.15625 L -7.359375 10.9375 L -7.15625 10.90625 L -6.25 1.15625 Z M -4.421875 0.8125 "/></g></g></g><g fill="#ffffff" fill-opacity="1"><g transform="translate(119.816622, 197.168297)"><g><path d="M -3.53125 7.421875 L -3.609375 0.046875 L -1.71875 0.015625 L -1.578125 12.28125 L -3.40625 12.3125 L -3.4375 10.390625 L -3.59375 10.390625 C -3.875 11.015625 -4.300781 11.519531 -4.875 11.90625 C -5.457031 12.289062 -6.210938 12.488281 -7.140625 12.5 C -8.378906 12.519531 -9.382812 12.148438 -10.15625 11.390625 C -10.9375 10.640625 -11.332031 9.484375 -11.34375 7.921875 L -11.4375 0.125 L -9.546875 0.109375 L -9.453125 7.78125 C -9.441406 8.738281 -9.179688 9.484375 -8.671875 10.015625 C -8.171875 10.554688 -7.484375 10.820312 -6.609375 10.8125 C -5.710938 10.800781 -4.96875 10.5 -4.375 9.90625 C -3.789062 9.320312 -3.507812 8.492188 -3.53125 7.421875 Z M -3.53125 7.421875 "/></g></g></g><g fill="#ffffff" fill-opacity="1"><g transform="translate(107.44086, 197.168357)"><g/></g></g><g fill="#ffffff" fill-opacity="1"><g transform="translate(101.714701, 196.682882)"><g><path d="M -9.078125 10.859375 L -8.796875 9.296875 L -6.21875 9.75 L -4.984375 2.703125 C -4.890625 2.171875 -4.894531 1.757812 -5 1.46875 C -5.101562 1.1875 -5.269531 0.976562 -5.5 0.84375 C -5.738281 0.707031 -5.988281 0.617188 -6.25 0.578125 C -6.457031 0.535156 -6.628906 0.515625 -6.765625 0.515625 C -6.898438 0.523438 -7.007812 0.523438 -7.09375 0.515625 L -7.1875 -1.203125 C -7.050781 -1.234375 -6.863281 -1.25 -6.625 -1.25 C -6.394531 -1.257812 -6.101562 -1.234375 -5.75 -1.171875 C -5.226562 -1.078125 -4.738281 -0.875 -4.28125 -0.5625 C -3.820312 -0.25 -3.46875 0.164062 -3.21875 0.6875 C -2.976562 1.207031 -2.921875 1.816406 -3.046875 2.515625 L -4.375 10.078125 L -2.53125 10.390625 L -2.8125 11.953125 L -4.65625 11.640625 L -5.15625 14.53125 L -7 14.203125 L -6.5 11.3125 Z M -9.078125 10.859375 "/></g></g></g><g fill="#ffffff" fill-opacity="1"><g transform="translate(94.458375, 195.615543)"><g><path d="M -6.34375 -2.15625 C -5.28125 -1.84375 -4.425781 -1.316406 -3.78125 -0.578125 C -3.132812 0.160156 -2.726562 1.050781 -2.5625 2.09375 C -2.394531 3.144531 -2.492188 4.273438 -2.859375 5.484375 C -3.222656 6.703125 -3.765625 7.703125 -4.484375 8.484375 C -5.203125 9.265625 -6.035156 9.785156 -6.984375 10.046875 C -7.929688 10.304688 -8.9375 10.28125 -10 9.96875 C -11.0625 9.644531 -11.914062 9.113281 -12.5625 8.375 C -13.207031 7.632812 -13.613281 6.738281 -13.78125 5.6875 C -13.957031 4.632812 -13.863281 3.5 -13.5 2.28125 C -13.132812 1.070312 -12.585938 0.0820312 -11.859375 -0.6875 C -11.140625 -1.46875 -10.304688 -1.988281 -9.359375 -2.25 C -8.410156 -2.507812 -7.40625 -2.476562 -6.34375 -2.15625 Z M -6.828125 -0.546875 C -7.628906 -0.796875 -8.351562 -0.789062 -9 -0.53125 C -9.644531 -0.269531 -10.191406 0.15625 -10.640625 0.75 C -11.097656 1.351562 -11.445312 2.046875 -11.6875 2.828125 C -11.914062 3.609375 -12.003906 4.375 -11.953125 5.125 C -11.910156 5.882812 -11.691406 6.550781 -11.296875 7.125 C -10.910156 7.695312 -10.316406 8.109375 -9.515625 8.359375 C -8.710938 8.597656 -7.984375 8.585938 -7.328125 8.328125 C -6.679688 8.066406 -6.128906 7.628906 -5.671875 7.015625 C -5.222656 6.410156 -4.882812 5.71875 -4.65625 4.9375 C -4.414062 4.15625 -4.316406 3.390625 -4.359375 2.640625 C -4.410156 1.898438 -4.632812 1.242188 -5.03125 0.671875 C -5.425781 0.0976562 -6.023438 -0.304688 -6.828125 -0.546875 Z M -6.828125 -0.546875 "/></g></g></g><g fill="#ffffff" fill-opacity="1"><g transform="translate(82.414198, 191.843794)"><g/></g></g><g fill="#ffffff" fill-opacity="1"><g transform="translate(77.202475, 189.886418)"><g><path d="M -5.875 -3.53125 C -4.84375 -2.96875 -4.082031 -2.25 -3.59375 -1.375 C -3.101562 -0.5 -2.882812 0.457031 -2.9375 1.5 C -3 2.550781 -3.332031 3.625 -3.9375 4.71875 C -4.539062 5.820312 -5.273438 6.679688 -6.140625 7.296875 C -7.003906 7.921875 -7.929688 8.269531 -8.921875 8.34375 C -9.910156 8.414062 -10.890625 8.179688 -11.859375 7.640625 C -12.421875 7.328125 -12.921875 6.925781 -13.359375 6.4375 C -13.796875 5.957031 -14.125 5.382812 -14.34375 4.71875 C -14.5625 4.050781 -14.613281 3.300781 -14.5 2.46875 C -14.382812 1.644531 -14.050781 0.734375 -13.5 -0.265625 L -13.109375 -0.96875 L -5.328125 3.34375 C -4.722656 2.175781 -4.554688 1.117188 -4.828125 0.171875 C -5.109375 -0.773438 -5.734375 -1.515625 -6.703125 -2.046875 C -7.347656 -2.410156 -7.976562 -2.582031 -8.59375 -2.5625 C -9.21875 -2.550781 -9.796875 -2.320312 -10.328125 -1.875 L -11.65625 -3.203125 C -10.957031 -3.878906 -10.09375 -4.253906 -9.0625 -4.328125 C -8.03125 -4.410156 -6.96875 -4.144531 -5.875 -3.53125 Z M -6.125 4.765625 L -12.234375 1.375 C -12.734375 2.28125 -12.878906 3.179688 -12.671875 4.078125 C -12.460938 4.972656 -11.914062 5.664062 -11.03125 6.15625 C -10.394531 6.507812 -9.765625 6.664062 -9.140625 6.625 C -8.523438 6.582031 -7.953125 6.394531 -7.421875 6.0625 C -6.890625 5.726562 -6.457031 5.296875 -6.125 4.765625 Z M -6.125 4.765625 "/></g></g></g><g fill="#ffffff" fill-opacity="1"><g transform="translate(66.596633, 184.060648)"><g><path d="M -9.859375 7.9375 L -9.203125 2.15625 L -14.5625 4.421875 L -16.296875 3.109375 L -9.453125 0.578125 L -8.9375 -6.703125 L -7.203125 -5.390625 L -7.71875 0.171875 L -2.5 -1.875 L -0.765625 -0.578125 L -7.5625 2 L -8.125 9.234375 Z M -9.859375 7.9375 "/></g></g></g><g fill="#ffffff" fill-opacity="1"><g transform="translate(57.614196, 177.495257)"><g><path d="M 2.03125 -4.46875 L -9.875 7.46875 L -11.171875 6.1875 L -9.796875 4.8125 L -9.953125 4.65625 C -10.203125 4.707031 -10.53125 4.765625 -10.9375 4.828125 C -11.351562 4.890625 -11.816406 4.847656 -12.328125 4.703125 C -12.835938 4.554688 -13.378906 4.203125 -13.953125 3.640625 C -14.679688 2.910156 -15.140625 2.082031 -15.328125 1.15625 C -15.523438 0.238281 -15.445312 -0.707031 -15.09375 -1.6875 C -14.738281 -2.675781 -14.101562 -3.628906 -13.1875 -4.546875 C -12.28125 -5.460938 -11.332031 -6.097656 -10.34375 -6.453125 C -9.363281 -6.816406 -8.410156 -6.90625 -7.484375 -6.71875 C -6.566406 -6.53125 -5.75 -6.078125 -5.03125 -5.359375 C -4.46875 -4.796875 -4.109375 -4.257812 -3.953125 -3.75 C -3.804688 -3.238281 -3.757812 -2.769531 -3.8125 -2.34375 C -3.875 -1.914062 -3.9375 -1.570312 -4 -1.3125 L -3.890625 -1.203125 L 0.6875 -5.796875 Z M -6.859375 1.8125 C -5.878906 0.820312 -5.296875 -0.191406 -5.109375 -1.234375 C -4.921875 -2.273438 -5.234375 -3.191406 -6.046875 -3.984375 C -6.597656 -4.535156 -7.207031 -4.847656 -7.875 -4.921875 C -8.539062 -5.003906 -9.222656 -4.890625 -9.921875 -4.578125 C -10.617188 -4.265625 -11.273438 -3.800781 -11.890625 -3.1875 C -12.492188 -2.582031 -12.945312 -1.9375 -13.25 -1.25 C -13.5625 -0.570312 -13.671875 0.0976562 -13.578125 0.765625 C -13.484375 1.429688 -13.160156 2.046875 -12.609375 2.609375 C -11.785156 3.421875 -10.863281 3.734375 -9.84375 3.546875 C -8.820312 3.359375 -7.828125 2.78125 -6.859375 1.8125 Z M -6.859375 1.8125 "/></g></g></g><g fill="#ffffff" fill-opacity="1"><g transform="translate(48.577726, 168.240466)"><g><path d="M -14.96875 7.53125 L -2.28125 -2.796875 L -1.078125 -1.328125 L -13.765625 9 Z M -14.96875 7.53125 "/></g></g></g><g fill="#ffffff" fill-opacity="1"><g transform="translate(45.485041, 164.824475)"><g><path d="M -3.484375 -5.75 C -2.867188 -4.820312 -2.550781 -3.863281 -2.53125 -2.875 C -2.507812 -1.882812 -2.769531 -0.9375 -3.3125 -0.03125 C -3.851562 0.875 -4.648438 1.671875 -5.703125 2.359375 C -6.773438 3.066406 -7.832031 3.488281 -8.875 3.625 C -9.925781 3.757812 -10.898438 3.617188 -11.796875 3.203125 C -12.691406 2.796875 -13.445312 2.128906 -14.0625 1.203125 C -14.664062 0.273438 -14.976562 -0.675781 -15 -1.65625 C -15.019531 -2.632812 -14.757812 -3.578125 -14.21875 -4.484375 C -13.675781 -5.398438 -12.867188 -6.210938 -11.796875 -6.921875 C -10.742188 -7.609375 -9.691406 -8.015625 -8.640625 -8.140625 C -7.597656 -8.273438 -6.628906 -8.140625 -5.734375 -7.734375 C -4.835938 -7.335938 -4.085938 -6.675781 -3.484375 -5.75 Z M -4.890625 -4.8125 C -5.347656 -5.507812 -5.90625 -5.96875 -6.5625 -6.1875 C -7.21875 -6.40625 -7.910156 -6.429688 -8.640625 -6.265625 C -9.378906 -6.097656 -10.085938 -5.789062 -10.765625 -5.34375 C -11.453125 -4.894531 -12.019531 -4.363281 -12.46875 -3.75 C -12.914062 -3.144531 -13.171875 -2.492188 -13.234375 -1.796875 C -13.304688 -1.109375 -13.113281 -0.414062 -12.65625 0.28125 C -12.195312 0.976562 -11.632812 1.4375 -10.96875 1.65625 C -10.300781 1.875 -9.597656 1.894531 -8.859375 1.71875 C -8.128906 1.550781 -7.421875 1.242188 -6.734375 0.796875 C -6.054688 0.347656 -5.492188 -0.175781 -5.046875 -0.78125 C -4.597656 -1.382812 -4.34375 -2.03125 -4.28125 -2.71875 C -4.226562 -3.414062 -4.429688 -4.113281 -4.890625 -4.8125 Z M -4.890625 -4.8125 "/></g></g></g><g fill="#ffffff" fill-opacity="1"><g transform="translate(38.678459, 154.301425)"><g><path d="M -0.765625 -1.546875 L -11.75 3.90625 L -12.5625 2.28125 L -10.890625 1.453125 L -10.953125 1.34375 C -11.597656 1.414062 -12.21875 1.273438 -12.8125 0.921875 C -13.414062 0.566406 -13.878906 0.0625 -14.203125 -0.59375 C -14.359375 -0.90625 -14.457031 -1.191406 -14.5 -1.453125 C -14.539062 -1.722656 -14.546875 -1.976562 -14.515625 -2.21875 L -12.78125 -2.359375 C -12.789062 -2.203125 -12.773438 -2.035156 -12.734375 -1.859375 C -12.691406 -1.679688 -12.617188 -1.484375 -12.515625 -1.265625 C -12.117188 -0.460938 -11.546875 0.0703125 -10.796875 0.34375 C -10.046875 0.625 -9.300781 0.582031 -8.5625 0.21875 L -1.609375 -3.234375 Z M -0.765625 -1.546875 "/></g></g></g><g fill="#ffffff" fill-opacity="1"><g transform="translate(35.055953, 147.422765)"><g><path d="M -2.0625 -6.53125 C -1.675781 -5.425781 -1.582031 -4.382812 -1.78125 -3.40625 C -1.976562 -2.4375 -2.445312 -1.578125 -3.1875 -0.828125 C -3.9375 -0.078125 -4.898438 0.507812 -6.078125 0.9375 C -7.265625 1.351562 -8.382812 1.503906 -9.4375 1.390625 C -10.488281 1.285156 -11.410156 0.9375 -12.203125 0.34375 C -12.992188 -0.25 -13.570312 -1.066406 -13.9375 -2.109375 C -14.15625 -2.722656 -14.265625 -3.359375 -14.265625 -4.015625 C -14.273438 -4.671875 -14.140625 -5.316406 -13.859375 -5.953125 C -13.585938 -6.585938 -13.132812 -7.179688 -12.5 -7.734375 C -11.875 -8.285156 -11.023438 -8.753906 -9.953125 -9.140625 L -9.203125 -9.40625 L -6.21875 -1.03125 C -4.988281 -1.5 -4.160156 -2.179688 -3.734375 -3.078125 C -3.316406 -3.972656 -3.289062 -4.9375 -3.65625 -5.96875 C -3.90625 -6.664062 -4.269531 -7.210938 -4.75 -7.609375 C -5.226562 -8.015625 -5.816406 -8.222656 -6.515625 -8.234375 L -6.625 -10.109375 C -5.664062 -10.160156 -4.769531 -9.875 -3.9375 -9.25 C -3.113281 -8.625 -2.488281 -7.71875 -2.0625 -6.53125 Z M -7.734375 -0.484375 L -10.078125 -7.0625 C -11.054688 -6.71875 -11.765625 -6.140625 -12.203125 -5.328125 C -12.640625 -4.515625 -12.6875 -3.628906 -12.34375 -2.671875 C -12.101562 -1.992188 -11.734375 -1.460938 -11.234375 -1.078125 C -10.742188 -0.703125 -10.191406 -0.460938 -9.578125 -0.359375 C -8.960938 -0.253906 -8.347656 -0.296875 -7.734375 -0.484375 Z M -7.734375 -0.484375 "/></g></g></g></svg>